<svg xmlns="http://www.w3.org/2000/svg" width="38.9" height="34.125" viewBox="0 0 38.9 34.125">
  <g id="Group_34857" data-name="Group 34857" transform="translate(-80 -461)">
    <path id="Icon_awesome-camera" data-name="Icon awesome-camera" d="M36,10.125v20.25a3.376,3.376,0,0,1-3.375,3.375H3.375A3.376,3.376,0,0,1,0,30.375V10.125A3.376,3.376,0,0,1,3.375,6.75H9.563l.865-2.313A3.37,3.37,0,0,1,13.584,2.25h8.824a3.37,3.37,0,0,1,3.157,2.187l.872,2.313h6.188A3.376,3.376,0,0,1,36,10.125ZM26.438,20.25A8.438,8.438,0,1,0,18,28.688,8.444,8.444,0,0,0,26.438,20.25Zm-2.25,0A6.188,6.188,0,1,1,18,14.063,6.2,6.2,0,0,1,24.188,20.25Z" transform="translate(80 458.75)" fill="#262628"/>
    <path id="Icon_awesome-plus-circle" data-name="Icon awesome-plus-circle" d="M6.219.563a5.656,5.656,0,1,0,5.656,5.656A5.655,5.655,0,0,0,6.219.563ZM9.5,6.857a.274.274,0,0,1-.274.274h-2.1v2.1a.274.274,0,0,1-.274.274H5.58a.274.274,0,0,1-.274-.274v-2.1h-2.1a.274.274,0,0,1-.274-.274V5.58a.274.274,0,0,1,.274-.274h2.1v-2.1a.274.274,0,0,1,.274-.274H6.857a.274.274,0,0,1,.274.274v2.1h2.1A.274.274,0,0,1,9.5,5.58Z" transform="translate(106.525 482.75)" fill="#fff" stroke="#262628" stroke-width="1"/>
  </g>
</svg>
