<svg xmlns="http://www.w3.org/2000/svg" width="22" height="20" viewBox="0 0 16.5 16.375">
  <g id="Group_34865" data-name="Group 34865" transform="translate(-34 -746.125)">
    <g id="Group_34864" data-name="Group 34864" transform="translate(-47 284)">
      <path id="Icon_awesome-camera" data-name="Icon awesome-camera" d="M15.6,6.219V16.424a1.6,1.6,0,0,1-1.463,1.7H1.463A1.6,1.6,0,0,1,0,16.424V6.219a1.6,1.6,0,0,1,1.463-1.7H4.144l.375-1.166a1.487,1.487,0,0,1,1.368-1.1H9.71a1.487,1.487,0,0,1,1.368,1.1l.378,1.166h2.681A1.6,1.6,0,0,1,15.6,6.219Zm-4.144,5.1c0-2.346-1.639-4.252-3.656-4.252S4.144,8.976,4.144,11.321,5.783,15.574,7.8,15.574,11.456,13.667,11.456,11.321Zm-.975,0A2.929,2.929,0,0,1,7.8,14.44a2.929,2.929,0,0,1-2.681-3.118A2.929,2.929,0,0,1,7.8,8.2,2.929,2.929,0,0,1,10.481,11.321Z" transform="translate(81 459.875)" fill="#262628"/>
      <path id="Icon_awesome-plus-circle" data-name="Icon awesome-plus-circle" d="M3.2.563A2.634,2.634,0,1,0,5.83,3.2,2.633,2.633,0,0,0,3.2.563ZM4.552,3.493c0,.07-.172.142-.242.142l-.689-.014v.731c0,.07-.057.246-.127.246H2.9c-.07,0-.127-.176-.127-.246V3.621H2.137c-.07,0-.269-.057-.269-.127V2.9c0-.07.2-.127.269-.127h.635V2.044A.134.134,0,0,1,2.9,1.91h.595a.134.134,0,0,1,.127.134v.727H4.31c.07,0,.242.057.242.127Z" transform="translate(91.17 472.17)" fill="#f1a243" stroke="#262628" stroke-width="1"/>
    </g>
  </g>
</svg>
