<svg id="Layer_2" data-name="Layer 2" xmlns="http://www.w3.org/2000/svg" width="24" height="24" viewBox="0 0 24 24">
  <g id="map">
    <rect id="Rectangle_653" data-name="Rectangle 653" width="24" height="24" transform="translate(24 24) rotate(180)" fill="#9b9b9b" opacity="0"/>
    <path id="Path_6575" data-name="Path 6575" d="M20.41,5.89l-4-1.8h-.82L12,5.7,8.41,4.09H8.36L8.24,4h-.6l-4,1.8A1,1,0,0,0,3,6.8V19a1,1,0,0,0,1.41.91L8,18.3l3.59,1.61h.05a.85.85,0,0,0,.72,0h.05L16,18.3l3.59,1.61A1,1,0,0,0,21,19V6.8a1,1,0,0,0-.59-.91ZM5,7.44l2-.89v10l-2,.89Zm4-.89,2,.89v10l-2-.89Zm4,.89,2-.89v10l-2,.89Zm6,10-2-.89v-10l2,.89Z" fill="#9b9b9b"/>
  </g>
</svg>
