<svg xmlns="http://www.w3.org/2000/svg" width="22.949" height="22.366" viewBox="0 0 22.949 22.366">
  <g id="Group_898" data-name="Group 898" transform="translate(0)">
    <g id="Group_884" data-name="Group 884" transform="translate(1.248 1.002)">
      <g id="Group_852" data-name="Group 852" transform="translate(13.431 17.189)">
        <g id="Group_850" data-name="Group 850">
          <path id="Path_2183" data-name="Path 2183" d="M702.775,832.784l-.7.6a.529.529,0,0,0-.053.792l2.687,2.419a.569.569,0,0,0,.844-.726l-1.99-3.018A.528.528,0,0,0,702.775,832.784Z" transform="translate(-701.871 -832.638)" fill="#2d3135"/>
          <path id="Path_2184" data-name="Path 2184" d="M704.35,834.039l-.784-1.188a.528.528,0,0,0-.791-.066l-.7.6a.529.529,0,0,0-.053.792l1.53,1.377A8.894,8.894,0,0,0,704.35,834.039Z" transform="translate(-701.871 -832.638)" fill="#2d3135" opacity="0.5" style="mix-blend-mode: multiply;isolation: isolate"/>
        </g>
        <g id="Group_851" data-name="Group 851" transform="translate(2.352 1.845)" style="mix-blend-mode: screen;isolation: isolate">
          <path id="Path_2185" data-name="Path 2185" d="M783.946,897.575a.06.06,0,0,1-.05-.023l-.954-1.233a.06.06,0,0,1,.095-.073l.954,1.233a.06.06,0,0,1-.011.084A.061.061,0,0,1,783.946,897.575Z" transform="translate(-782.93 -896.223)" fill="#2d3135"/>
        </g>
      </g>
      <g id="Group_855" data-name="Group 855" transform="translate(2.878 17.258)">
        <g id="Group_853" data-name="Group 853">
          <path id="Path_2186" data-name="Path 2186" d="M341,835.132l.705.589a.528.528,0,0,1,.064.791l-2.651,2.458a.569.569,0,0,1-.854-.713l1.946-3.047A.529.529,0,0,1,341,835.132Z" transform="translate(-338.194 -834.992)" fill="#2d3135"/>
          <path id="Path_2187" data-name="Path 2187" d="M381.423,836.41l.766-1.2a.528.528,0,0,1,.79-.078l.705.589a.528.528,0,0,1,.064.791l-1.51,1.4A8.894,8.894,0,0,1,381.423,836.41Z" transform="translate(-380.169 -834.992)" fill="#2d3135" opacity="0.5" style="mix-blend-mode: multiply;isolation: isolate"/>
        </g>
        <g id="Group_854" data-name="Group 854" transform="translate(0.333 1.861)" style="mix-blend-mode: screen;isolation: isolate">
          <path id="Path_2188" data-name="Path 2188" d="M349.724,900.5a.06.06,0,0,0,.05-.024l.936-1.247a.06.06,0,1,0-.1-.072l-.936,1.247a.06.06,0,0,0,.046.1Z" transform="translate(-349.666 -899.134)" fill="#2d3135"/>
        </g>
      </g>
      <g id="Group_861" data-name="Group 861" transform="translate(11.875 0)">
        <g id="Group_860" data-name="Group 860" transform="translate(0.039)">
          <g id="Group_856" data-name="Group 856" transform="translate(5.446 0.395)">
            <path id="Path_2189" data-name="Path 2189" d="M838.006,255.611l.687-.914a.493.493,0,0,0-.066-.695h0a.493.493,0,0,0-.695.066l-.687.914Z" transform="translate(-837.245 -253.889)" fill="#2d3135"/>
            <path id="Path_2190" data-name="Path 2190" d="M867.109,255.744a.5.5,0,0,0-.094-.061.486.486,0,0,1-.037.592l-.4.482.2.164.4-.482A.494.494,0,0,0,867.109,255.744Z" transform="translate(-865.728 -255.631)" fill="#2d3135" opacity="0.3" style="mix-blend-mode: multiply;isolation: isolate"/>
            <path id="Path_2191" data-name="Path 2191" d="M869.7,256.9c0,.048.053.092.128.1s.14-.026.144-.074-.053-.092-.128-.1S869.7,256.856,869.7,256.9Z" transform="translate(-868.758 -256.744)" fill="#fff"/>
          </g>
          <path id="Path_2192" data-name="Path 2192" d="M654.974,241.758l5.5,4.488,1.464,1.195a4.5,4.5,0,0,0-.381-5.77q-.089-.093-.184-.181t-.2-.176l-.052-.042-.044-.035-.043-.033-.048-.036-.078-.057-.054-.038-.054-.037A4.5,4.5,0,0,0,654.974,241.758Z" transform="translate(-654.817 -240.282)" fill="#f7b90d"/>
          <g id="Group_857" data-name="Group 857" transform="translate(0 0.718)" opacity="0.3" style="mix-blend-mode: multiply;isolation: isolate">
            <path id="Path_2193" data-name="Path 2193" d="M649.6,296.663a.316.316,0,0,0-.018.026A.219.219,0,0,1,649.6,296.663Z" transform="translate(-649.577 -295.745)" fill="#f7b90d"/>
            <path id="Path_2194" data-name="Path 2194" d="M844.771,265.034l.044.05a2.919,2.919,0,0,1,.417.641q.063.13.114.266a4.621,4.621,0,0,1-.847,4.289l1.464,1.195a4.5,4.5,0,0,0-.381-5.77q-.089-.093-.184-.181t-.2-.176l-.052-.042-.044-.035-.043-.033-.048-.036-.078-.057-.054-.037-.054-.036Z" transform="translate(-838.843 -265.034)" fill="#f7b90d"/>
          </g>
          <g id="Group_858" data-name="Group 858" transform="translate(5.541 0.989)" opacity="0.5" style="mix-blend-mode: screen;isolation: isolate">
            <path id="Path_2195" data-name="Path 2195" d="M840.529,274.538a.254.254,0,1,0,.267-.18A.23.23,0,0,0,840.529,274.538Z" transform="translate(-840.528 -274.356)" fill="#f7b90d"/>
          </g>
          <g id="Group_859" data-name="Group 859" transform="translate(0.913 0.3)" opacity="0.5" style="mix-blend-mode: screen;isolation: isolate">
            <path id="Path_2196" data-name="Path 2196" d="M681.193,251.667a.179.179,0,0,0,.122-.033,4.4,4.4,0,0,1,3.88-.352.18.18,0,0,0,.137-.332,4.68,4.68,0,0,0-4.227.393.18.18,0,0,0,.088.324Z" transform="translate(-681.03 -250.611)" fill="#f7b90d"/>
          </g>
        </g>
        <ellipse id="Ellipse_31" data-name="Ellipse 31" cx="0.315" cy="4.482" rx="0.315" ry="4.482" transform="translate(0 1.731) rotate(-50.868)" fill="#dd8c0b"/>
        <path id="Path_2197" data-name="Path 2197" d="M669.159,371.734l-.326-.264-.276.308-.143.159-2.619,2.918.7.627,2.649-2.953.114-.127.3-.339Z" transform="translate(-665.286 -367.663)" fill="#2d3135"/>
        <path id="Path_2198" data-name="Path 2198" d="M765.7,371.47l-.143.16a9.289,9.289,0,0,1,.559.781l.008-.009.3-.339-.4-.329Z" transform="translate(-762.155 -367.663)" fill="#2d3135" opacity="0.5" style="mix-blend-mode: multiply;isolation: isolate"/>
      </g>
      <g id="Group_867" data-name="Group 867" transform="translate(0 0.02)">
        <g id="Group_866" data-name="Group 866">
          <g id="Group_862" data-name="Group 862" transform="translate(0.931 0.439)">
            <path id="Path_2199" data-name="Path 2199" d="M271.921,257.805l-.7-.9a.493.493,0,0,1,.056-.7h0a.493.493,0,0,1,.7.056l.7.9Z" transform="translate(-271.103 -256.089)" fill="#2d3135"/>
            <path id="Path_2200" data-name="Path 2200" d="M271.277,258.056a.494.494,0,0,1,.094-.062.486.486,0,0,0,.046.591l.405.476-.2.167-.405-.476A.493.493,0,0,1,271.277,258.056Z" transform="translate(-271.103 -257.939)" fill="#2d3135" opacity="0.3" style="mix-blend-mode: multiply;isolation: isolate"/>
            <path id="Path_2201" data-name="Path 2201" d="M283.145,259.1c.005.048-.051.093-.127.1s-.14-.024-.145-.072.052-.093.127-.1S283.14,259.054,283.145,259.1Z" transform="translate(-282.531 -258.943)" fill="#fff"/>
          </g>
          <path id="Path_2202" data-name="Path 2202" d="M246.817,242.384l-5.434,4.568-1.447,1.216a4.5,4.5,0,0,1,.3-5.775q.087-.094.181-.184t.2-.179l.052-.043.043-.035.042-.034.047-.036.077-.058.053-.038.053-.038A4.5,4.5,0,0,1,246.817,242.384Z" transform="translate(-239.029 -240.956)" fill="#f7b90d"/>
          <g id="Group_863" data-name="Group 863" transform="translate(0 0.754)" opacity="0.3" style="mix-blend-mode: multiply;isolation: isolate">
            <path id="Path_2203" data-name="Path 2203" d="M512.278,295.609a.3.3,0,0,1,.019.026A.228.228,0,0,0,512.278,295.609Z" transform="translate(-504.349 -294.777)" fill="#f7b90d"/>
            <path id="Path_2204" data-name="Path 2204" d="M241.036,266.941l-.043.051a2.917,2.917,0,0,0-.408.647q-.061.131-.11.268a4.621,4.621,0,0,0,.909,4.276l-1.447,1.216a4.5,4.5,0,0,1,.3-5.775q.087-.094.181-.184t.2-.179l.052-.043.043-.035.042-.034.047-.036.077-.058.053-.038.053-.037Z" transform="translate(-239.029 -266.941)" fill="#f7b90d"/>
          </g>
          <g id="Group_864" data-name="Group 864" transform="translate(1.902 1.022)" opacity="0.5" style="mix-blend-mode: screen;isolation: isolate">
            <path id="Path_2205" data-name="Path 2205" d="M305.084,276.366a.254.254,0,1,1-.27-.176A.23.23,0,0,1,305.084,276.366Z" transform="translate(-304.587 -276.188)" fill="#f7b90d"/>
          </g>
          <g id="Group_865" data-name="Group 865" transform="translate(2.61 0.298)" opacity="0.5" style="mix-blend-mode: screen;isolation: isolate">
            <path id="Path_2206" data-name="Path 2206" d="M333.241,252.24a.179.179,0,0,1-.122-.031,4.4,4.4,0,0,0-3.885-.3.18.18,0,0,1-.142-.33,4.68,4.68,0,0,1,4.232.332.18.18,0,0,1-.084.326Z" transform="translate(-328.983 -251.217)" fill="#f7b90d"/>
          </g>
        </g>
        <ellipse id="Ellipse_32" data-name="Ellipse 32" cx="4.482" cy="0.315" rx="4.482" ry="0.315" transform="translate(0.713 6.955) rotate(-39.964)" fill="#dd8c0b"/>
        <path id="Path_2207" data-name="Path 2207" d="M368.722,372.425l.323-.269.28.3.146.157,2.661,2.88-.689.637-2.692-2.914-.116-.126-.309-.334Z" transform="translate(-364.574 -368.349)" fill="#2d3135"/>
        <path id="Path_2208" data-name="Path 2208" d="M369.045,372.156l.145.158a9.249,9.249,0,0,0-.547.789l-.008-.009-.309-.334.4-.335Z" transform="translate(-364.574 -368.349)" fill="#2d3135" opacity="0.5" style="mix-blend-mode: multiply;isolation: isolate"/>
      </g>
      <g id="Group_883" data-name="Group 883" transform="translate(1.091 0.462)">
        <g id="Group_869" data-name="Group 869" transform="translate(7.652)">
          <rect id="Rectangle_575" data-name="Rectangle 575" width="0.585" height="2.927" rx="0.293" transform="matrix(1, -0.007, 0.007, 1, 0.945, 0.658)" fill="#2d3135"/>
          <path id="Path_2209" data-name="Path 2209" d="M572.954,279.418l.588.352-.005-.679a.293.293,0,1,0-.585,0Z" transform="translate(-572.005 -278.144)" fill="#2d3135" opacity="0.5" style="mix-blend-mode: multiply;isolation: isolate"/>
          <path id="Path_2210" data-name="Path 2210" d="M542.783,256.672h0a.468.468,0,0,0-.472-.465l-1.535.011a.469.469,0,1,0,.007.937l1.535-.011A.469.469,0,0,0,542.783,256.672Z" transform="translate(-540.31 -256.207)" fill="#2d3135"/>
          <g id="Group_868" data-name="Group 868" transform="translate(0.405 0.109)">
            <path id="Path_2211" data-name="Path 2211" d="M555.813,260.035l-1.5.011a.04.04,0,0,1,0-.08l1.5-.011a.04.04,0,1,1,0,.08Z" transform="translate(-554.276 -259.955)" fill="#fff"/>
          </g>
        </g>
        <g id="Group_871" data-name="Group 871" transform="translate(0 2.506)">
          <g id="Group_870" data-name="Group 870">
            <path id="Path_2212" data-name="Path 2212" d="M294.459,351.41a8.914,8.914,0,1,1-8.978-8.849A8.914,8.914,0,0,1,294.459,351.41Z" transform="translate(-276.632 -342.561)" fill="#ef1b2b"/>
          </g>
        </g>
        <g id="Group_873" data-name="Group 873" transform="translate(0 2.506)">
          <g id="Group_872" data-name="Group 872">
            <path id="Path_2213" data-name="Path 2213" d="M294.459,351.41a8.914,8.914,0,1,1-8.978-8.849A8.914,8.914,0,0,1,294.459,351.41Z" transform="translate(-276.632 -342.561)" fill="#ef1b2b"/>
          </g>
        </g>
        <path id="Path_2214" data-name="Path 2214" d="M276.637,647.392a8.914,8.914,0,0,0,17.827-.145Z" transform="translate(-276.637 -635.9)" fill="#ef1b2b" opacity="0.8" style="mix-blend-mode: multiply;isolation: isolate"/>
        <g id="Group_875" data-name="Group 875" transform="translate(1.297 3.804)">
          <g id="Group_874" data-name="Group 874">
            <ellipse id="Ellipse_33" data-name="Ellipse 33" cx="7.616" cy="7.616" rx="7.616" ry="7.616" fill="#fff"/>
          </g>
        </g>
        <g id="Group_877" data-name="Group 877" transform="translate(7.889 10.395)">
          <g id="Group_876" data-name="Group 876" transform="translate(0 0)">
            <ellipse id="Ellipse_34" data-name="Ellipse 34" cx="0.725" cy="0.725" rx="0.725" ry="0.725" transform="matrix(0.743, -0.669, 0.669, 0.743, 0, 0.97)" fill="#2d3135"/>
          </g>
        </g>
        <g id="Group_878" data-name="Group 878" transform="translate(8.525 6.479)">
          <path id="Path_2215" data-name="Path 2215" d="M570.812,484.784a.355.355,0,0,1-.358-.352l-.033-4.586a.355.355,0,1,1,.71-.005l.033,4.586A.355.355,0,0,1,570.812,484.784Z" transform="translate(-570.421 -479.489)" fill="#2d3135"/>
        </g>
        <g id="Group_879" data-name="Group 879" transform="translate(6.186 11.065)">
          <path id="Path_2216" data-name="Path 2216" d="M490.164,639.584a.355.355,0,0,1-.18-.663l2.373-1.368a.355.355,0,0,1,.355.615l-2.373,1.368A.352.352,0,0,1,490.164,639.584Z" transform="translate(-489.807 -637.507)" fill="#2d3135"/>
        </g>
        <ellipse id="Ellipse_35" data-name="Ellipse 35" cx="0.386" cy="0.386" rx="0.386" ry="0.386" transform="translate(8.384 11.285) rotate(-30.73)" fill="#ed3233"/>
        <g id="Group_880" data-name="Group 880" transform="translate(8.837 11.343)">
          <path id="Path_2217" data-name="Path 2217" d="M584.833,651.305a.077.077,0,0,1-.058-.026l-3.607-4.068a.077.077,0,0,1,.115-.1l3.607,4.068a.077.077,0,0,1-.057.129Z" transform="translate(-581.148 -647.082)" fill="#ed3233"/>
        </g>
        <path id="Path_2218" data-name="Path 2218" d="M339.849,644.748a.2.2,0,1,0,.2.194A.2.2,0,0,0,339.849,644.748Z" transform="translate(-337.827 -633.473)" fill="#2d3135"/>
        <path id="Path_2219" data-name="Path 2219" d="M578.813,880.653a.2.2,0,1,0,.194-.2A.2.2,0,0,0,578.813,880.653Z" transform="translate(-570.044 -862.342)" fill="#2d3135"/>
        <path id="Path_2220" data-name="Path 2220" d="M814.718,641.69a.195.195,0,1,0-.2-.194A.195.195,0,0,0,814.718,641.69Z" transform="translate(-798.913 -630.125)" fill="#2d3135"/>
        <g id="Group_881" data-name="Group 881" transform="translate(1.795 4.222)">
          <ellipse id="Ellipse_36" data-name="Ellipse 36" cx="0.483" cy="0.483" rx="0.483" ry="0.483" transform="matrix(0.984, -0.178, 0.178, 0.984, 6.509, 0.172)" fill="#2d3135"/>
          <path id="Path_2221" data-name="Path 2221" d="M461.908,446.152a.188.188,0,1,0-.067.257A.188.188,0,0,0,461.908,446.152Z" transform="translate(-457.987 -444.772)" fill="#2d3135"/>
          <path id="Path_2222" data-name="Path 2222" d="M378.744,530.393a.188.188,0,1,0,.071.256A.188.188,0,0,0,378.744,530.393Z" transform="translate(-377.303 -526.635)" fill="#2d3135"/>
          <path id="Path_2223" data-name="Path 2223" d="M380.217,759.074a.188.188,0,1,0,.257.067A.188.188,0,0,0,380.217,759.074Z" transform="translate(-378.916 -748.678)" fill="#2d3135"/>
          <path id="Path_2224" data-name="Path 2224" d="M464.458,842.237a.188.188,0,1,0,.256-.071A.188.188,0,0,0,464.458,842.237Z" transform="translate(-460.779 -829.362)" fill="#2d3135"/>
          <path id="Path_2225" data-name="Path 2225" d="M693.139,840.765a.188.188,0,1,0,.067-.257A.188.188,0,0,0,693.139,840.765Z" transform="translate(-682.822 -827.749)" fill="#2d3135"/>
          <path id="Path_2226" data-name="Path 2226" d="M776.3,756.523a.188.188,0,1,0-.071-.256A.188.188,0,0,0,776.3,756.523Z" transform="translate(-763.505 -745.886)" fill="#2d3135"/>
          <path id="Path_2227" data-name="Path 2227" d="M774.83,527.843a.188.188,0,1,0-.257-.067A.188.188,0,0,0,774.83,527.843Z" transform="translate(-761.893 -523.844)" fill="#2d3135"/>
          <path id="Path_2228" data-name="Path 2228" d="M690.588,444.679a.188.188,0,1,0-.256.071A.188.188,0,0,0,690.588,444.679Z" transform="translate(-680.029 -443.16)" fill="#2d3135"/>
          <path id="Path_2229" data-name="Path 2229" d="M338.955,634.75a.483.483,0,1,0,.487.48A.483.483,0,0,0,338.955,634.75Z" transform="translate(-338.476 -627.987)" fill="#2d3135"/>
          <ellipse id="Ellipse_37" data-name="Ellipse 37" cx="0.483" cy="0.483" rx="0.483" ry="0.483" transform="matrix(0.959, -0.284, 0.284, 0.959, 6.567, 13.507)" fill="#2d3135"/>
          <ellipse id="Ellipse_38" data-name="Ellipse 38" cx="0.483" cy="0.483" rx="0.483" ry="0.483" transform="translate(13.118 7.396) rotate(-66.17)" fill="#2d3135"/>
        </g>
        <g id="Group_882" data-name="Group 882" transform="translate(2.639 2.705)" style="mix-blend-mode: screen;isolation: isolate">
          <path id="Path_2230" data-name="Path 2230" d="M380.042,352.129a9.065,9.065,0,0,0-2.884-1.885,8.8,8.8,0,0,0-6.723.049,9.071,9.071,0,0,0-2.856,1.927,8.283,8.283,0,0,1,2.8-2.051,8.424,8.424,0,0,1,1.665-.548,8.506,8.506,0,0,1,3.491-.025,8.42,8.42,0,0,1,1.673.524A8.287,8.287,0,0,1,380.042,352.129Z" transform="translate(-367.58 -349.427)" fill="#ff3951"/>
        </g>
      </g>
    </g>
    <g id="Group_897" data-name="Group 897">
      <g id="Group_885" data-name="Group 885" transform="translate(13.99 0.45)">
        <path id="Path_2231" data-name="Path 2231" d="M678.12,221.868a1.68,1.68,0,0,1,.517-.254l.131-.048c.046-.016.094-.03.144-.046.1-.033.208-.06.323-.09a5.749,5.749,0,0,1,1.523-.163c.118.005.23.009.334.02.052.005.1.008.151.015l.138.019a1.676,1.676,0,0,1,.559.139,3.074,3.074,0,0,1-.57-.032l-.137-.009c-.048,0-.1,0-.149-.006-.1-.005-.212,0-.328-.006-.231,0-.484.014-.749.042s-.515.072-.741.118c-.113.025-.22.048-.319.075-.05.013-.1.024-.144.037l-.132.038A3.081,3.081,0,0,1,678.12,221.868Z" transform="translate(-678.119 -221.266)" fill="#5d5f60"/>
      </g>
      <g id="Group_886" data-name="Group 886" transform="translate(15.492)">
        <path id="Path_2232" data-name="Path 2232" d="M731.583,205.838a11.381,11.381,0,0,1-1.692.057,3.043,3.043,0,0,1,1.692-.057Z" transform="translate(-729.891 -205.744)" fill="#5d5f60"/>
      </g>
      <g id="Group_887" data-name="Group 887" transform="translate(4.043 0.5)">
        <path id="Path_2233" data-name="Path 2233" d="M338.666,223.358a2.193,2.193,0,0,1-.482-.093l-.115-.024c-.04-.008-.082-.015-.126-.023-.086-.017-.18-.03-.278-.044-.2-.026-.413-.046-.641-.055s-.446,0-.643.012c-.1.008-.193.015-.28.026-.044.005-.086.009-.127.015l-.117.017a2.193,2.193,0,0,1-.487.061,1.281,1.281,0,0,1,.467-.166l.117-.027c.041-.009.084-.016.128-.024.089-.017.185-.028.285-.041a4.712,4.712,0,0,1,1.318.044c.1.019.195.037.282.06.044.011.086.02.127.032l.115.034A1.281,1.281,0,0,1,338.666,223.358Z" transform="translate(-335.37 -222.965)" fill="#5d5f60"/>
      </g>
      <g id="Group_888" data-name="Group 888" transform="translate(1.094 9.333)">
        <path id="Path_2234" data-name="Path 2234" d="M234.6,527.362a3.749,3.749,0,0,1-.211.812l-.054.194c-.019.067-.034.139-.053.211-.039.146-.07.3-.106.468-.065.332-.123.7-.162,1.086s-.049.759-.048,1.1c0,.169,0,.33.014.48,0,.075.006.148.011.218l.016.2a3.749,3.749,0,0,1,.052.837,2.187,2.187,0,0,1-.233-.814l-.033-.2c-.011-.071-.017-.145-.026-.221-.02-.153-.028-.318-.039-.491a8.042,8.042,0,0,1,.216-2.241c.043-.168.083-.328.132-.474.023-.073.044-.145.068-.212l.071-.193A2.189,2.189,0,0,1,234.6,527.362Z" transform="translate(-233.721 -527.361)" fill="#5d5f60"/>
      </g>
      <g id="Group_889" data-name="Group 889" transform="translate(4.648 0.188)">
        <path id="Path_2235" data-name="Path 2235" d="M357.456,212.264a6.5,6.5,0,0,1-1.27.047,2.918,2.918,0,0,1,1.27-.047Z" transform="translate(-356.186 -212.214)" fill="#5d5f60"/>
      </g>
      <g id="Group_890" data-name="Group 890" transform="translate(0.51 3.191)">
        <path id="Path_2236" data-name="Path 2236" d="M213.941,319.161c-.013,0-.041-.039-.081-.123a2.277,2.277,0,0,1-.133-.367l-.034-.125c-.01-.044-.02-.09-.03-.137l-.015-.073-.012-.076c-.008-.051-.017-.1-.023-.158a4.108,4.108,0,0,1-.022-.713,3.343,3.343,0,0,1,.305-1.256c.145-.3.286-.454.305-.44a2.38,2.38,0,0,1-.173.495,4.374,4.374,0,0,0-.235,1.212,5.4,5.4,0,0,0,.006.683c0,.053.01.1.014.153l.007.074.009.071.017.135.02.124c.026.158.051.286.068.375S213.954,319.156,213.941,319.161Z" transform="translate(-213.586 -315.692)" fill="#5d5f60"/>
      </g>
      <g id="Group_891" data-name="Group 891" transform="translate(0 3.616)">
        <path id="Path_2237" data-name="Path 2237" d="M196.113,331.363c-.027,0-.059-.056-.075-.156a1.074,1.074,0,0,1,.182-.753c.061-.082.116-.119.139-.1.048.032-.04.244-.1.512S196.17,331.357,196.113,331.363Z" transform="translate(-196.027 -330.346)" fill="#5d5f60"/>
      </g>
      <g id="Group_892" data-name="Group 892" transform="translate(21.539 2.724)">
        <path id="Path_2238" data-name="Path 2238" d="M938.929,303.213a1.9,1.9,0,0,1-.031-.543q0-.062,0-.13c0-.045,0-.092-.006-.141,0-.1-.012-.2-.02-.31-.02-.218-.049-.456-.093-.7s-.1-.481-.158-.692c-.031-.1-.058-.205-.089-.3-.015-.046-.028-.091-.043-.134l-.042-.123a1.9,1.9,0,0,1-.16-.52c.023-.012.146.159.293.466l.056.121c.019.042.036.087.055.134.039.092.073.194.109.3a5.639,5.639,0,0,1,.179.71,5.7,5.7,0,0,1,.08.728c0,.113.006.219,0,.319,0,.05,0,.1-.005.145l-.01.133A1.246,1.246,0,0,1,938.929,303.213Z" transform="translate(-938.278 -299.619)" fill="#5d5f60"/>
      </g>
      <g id="Group_893" data-name="Group 893" transform="translate(22.438 3.554)">
        <path id="Path_2239" data-name="Path 2239" d="M969.681,330.214a17.151,17.151,0,0,0-.422-2c.024-.012.1.079.191.249a2.5,2.5,0,0,1,.135.308,2.983,2.983,0,0,1,.17.8,2.514,2.514,0,0,1,0,.336C969.742,330.1,969.708,330.216,969.681,330.214Z" transform="translate(-969.249 -328.212)" fill="#5d5f60"/>
      </g>
      <g id="Group_894" data-name="Group 894" transform="translate(0.076 10.662)">
        <path id="Path_2240" data-name="Path 2240" d="M198.745,575.279c-.027,0-.062-.119-.077-.318a2.721,2.721,0,0,1,0-.35,3.246,3.246,0,0,1,.161-.842,2.71,2.71,0,0,1,.132-.325c.088-.18.165-.278.189-.267a19.289,19.289,0,0,0-.4,2.1Z" transform="translate(-198.661 -573.176)" fill="#5d5f60"/>
      </g>
      <g id="Group_895" data-name="Group 895" transform="translate(20.338 9.508)">
        <path id="Path_2241" data-name="Path 2241" d="M896.913,541.864c-.019-.01.019-.128.1-.332l.07-.169c.025-.062.049-.13.078-.2.055-.146.125-.308.186-.494l.1-.289c.035-.1.065-.208.1-.317l.052-.167c.009-.028.018-.057.026-.086l.023-.088.1-.364a13.021,13.021,0,0,0,.4-3.319q0-.193-.009-.377c0-.031,0-.061,0-.091s0-.06-.005-.089q-.006-.089-.011-.175c-.008-.114-.011-.225-.022-.331l-.031-.305c-.015-.2-.045-.37-.063-.524-.01-.077-.018-.15-.027-.216l-.028-.181c-.032-.218-.04-.341-.02-.347s.067.109.135.321l.054.177c.018.065.034.137.052.214.035.154.08.329.109.526l.051.309c.017.107.026.22.04.337l.019.178c0,.03.007.06.009.091s0,.062.005.093q.01.187.021.385a10.967,10.967,0,0,1-.409,3.4l-.112.369-.027.089c-.009.029-.021.058-.031.086l-.061.168c-.041.11-.077.217-.119.318l-.123.288c-.075.184-.16.344-.231.485-.036.07-.069.136-.1.2l-.095.159C897,541.774,896.931,541.874,896.913,541.864Z" transform="translate(-896.908 -533.401)" fill="#5d5f60"/>
      </g>
      <g id="Group_896" data-name="Group 896" transform="translate(21.607 15.437)">
        <path id="Path_2242" data-name="Path 2242" d="M940.632,739.734a19.314,19.314,0,0,0,.7-2.021c.027,0,.044.126.03.326a2.758,2.758,0,0,1-.049.347,3.264,3.264,0,0,1-.282.81,2.735,2.735,0,0,1-.177.3C940.745,739.662,940.654,739.749,940.632,739.734Z" transform="translate(-940.626 -737.713)" fill="#5d5f60"/>
      </g>
    </g>
  </g>
</svg>
