<svg xmlns="http://www.w3.org/2000/svg" width="20.894" height="25.755" viewBox="0 0 20.894 25.755">
  <path id="Path_100" data-name="Path 100" d="M14.242,4.125A5.758,5.758,0,0,0,15.554,0a5.941,5.941,0,0,0-3.813,1.938,5.434,5.434,0,0,0-1.375,3.938,4.489,4.489,0,0,0,3.875-1.75m1.313,2.125c-2.125-.125-3.938,1.188-4.938,1.188S8.054,6.313,6.366,6.313a6.271,6.271,0,0,0-5.313,3.25C-1.2,13.5.428,19.315,2.678,22.5c1.063,1.563,2.375,3.313,4.063,3.25,1.625-.063,2.25-1.063,4.188-1.063s2.5,1.063,4.25,1,2.875-1.563,3.938-3.188a12.589,12.589,0,0,0,1.75-3.625A5.663,5.663,0,0,1,20.18,8.814a5.82,5.82,0,0,0-4.626-2.563" transform="translate(0.026)"/>
</svg>
