<svg xmlns="http://www.w3.org/2000/svg" width="28.69" height="23.467" viewBox="0 0 28.69 23.467">
  <g id="money-svgrepo-com" transform="translate(0 -44.537)">
    <path id="Path_36112" data-name="Path 36112" d="M28.514,54.571,11.3,44.638a.956.956,0,0,0-.856,0L.188,50.6a.264.264,0,0,0,0,.5l17.2,9.933a.938.938,0,0,0,.856,0l10.261-5.963A.263.263,0,0,0,28.514,54.571Zm-8.971,4.163a1.6,1.6,0,0,0-.346-.252,3.49,3.49,0,0,0-3.16,0,1.973,1.973,0,0,0-.182.123l-11.592-6.7a2.632,2.632,0,0,0,.317-.152.967.967,0,0,0-.012-1.829,2.44,2.44,0,0,0-.3-.147L9.041,47a2.119,2.119,0,0,0,.252.176,3.49,3.49,0,0,0,3.16,0A1.888,1.888,0,0,0,12.718,47l11.627,6.714a2.637,2.637,0,0,0-.434.193.967.967,0,0,0,.012,1.829,3.1,3.1,0,0,0,.446.2Zm1.4-2.533-.756.44a.466.466,0,0,1-.422,0l-1.331-.768c-.117-.07-.117-.176,0-.246l.756-.44a.466.466,0,0,1,.422,0l1.331.768C21.061,56.025,21.061,56.136,20.944,56.2ZM10.273,50.038l-.756.44a.466.466,0,0,1-.422,0L7.763,49.71c-.117-.07-.117-.176,0-.246l.756-.44a.466.466,0,0,1,.422,0l1.331.768A.131.131,0,0,1,10.273,50.038Zm17.08,7.587,1.337.774L17.936,64.644l-.352-.2-.991-.569L0,54.289l1.331-.774L17.924,63.1Zm-10.736,9.61L.006,57.626l1.325-.768,16.617,9.6,9.381-5.453,1.337.774L17.954,68l-.346-.2Zm1.155-16.382a7.546,7.546,0,0,0-6.843.006c-1.888,1.1-1.882,2.867.012,3.964a7.534,7.534,0,0,0,6.837-.006C19.66,53.715,19.66,51.944,17.772,50.853Zm-.633,1.841-.446.106a.3.3,0,0,1-.24-.023.245.245,0,0,1-.047-.035c-.1-.094-.188-.193-.293-.281a2.191,2.191,0,0,0-.317-.229,2.161,2.161,0,0,0-.551-.217,2.025,2.025,0,0,0-.956.012l-.012.006.8.463a.075.075,0,0,1,0,.141l-.264.152a.25.25,0,0,1-.24,0l-.921-.534c-.07.041-.141.082-.217.123l.921.534a.075.075,0,0,1,0,.141L14.1,53.2a.25.25,0,0,1-.24,0l-.838-.487a.469.469,0,0,0-.035.686,1.313,1.313,0,0,0,.34.264,2.357,2.357,0,0,0,.387.182c.158.059.322.111.481.164a.342.342,0,0,1,.064.029.085.085,0,0,1,.035.141c-.053.088-.117.176-.182.264a.281.281,0,0,1-.3.076c-.147-.035-.293-.07-.434-.117a3.628,3.628,0,0,1-.7-.3,2.2,2.2,0,0,1-.539-.428.848.848,0,0,1-.053-1.167c.053-.076.129-.147.193-.223l-.393-.229a.075.075,0,0,1,0-.141l.264-.152a.25.25,0,0,1,.24,0l.322.188c.07-.041.141-.082.217-.123l-.322-.188a.075.075,0,0,1,0-.141l.264-.152a.25.25,0,0,1,.24,0l.416.24.053-.018a4.113,4.113,0,0,1,1.483-.17,3.566,3.566,0,0,1,1.12.27,2.708,2.708,0,0,1,.369.182,2.318,2.318,0,0,1,.692.592l.035.065C17.321,52.607,17.274,52.665,17.139,52.694Z"/>
  </g>
</svg>
