<svg xmlns="http://www.w3.org/2000/svg" width="40" height="40" viewBox="0 0 40 40">
  <g id="Rectangle_37" data-name="Rectangle 37" fill="#fff" stroke="#efefef" stroke-width="1">
    <rect width="40" height="40" rx="8" stroke="none"/>
    <rect x="0.5" y="0.5" width="39" height="39" rx="7.5" fill="none"/>
  </g>
  <path id="Icon_awesome-key" data-name="Icon awesome-key" d="M24,8.25a8.254,8.254,0,0,1-9.789,8.106l-1.126,1.266a1.125,1.125,0,0,1-.841.378H10.5v1.875A1.125,1.125,0,0,1,9.375,21H7.5v1.875A1.125,1.125,0,0,1,6.375,24H1.125A1.125,1.125,0,0,1,0,22.875V19.216a1.125,1.125,0,0,1,.329-.8l7.584-7.584A8.251,8.251,0,1,1,24,8.25ZM15.75,6A2.25,2.25,0,1,0,18,3.75,2.25,2.25,0,0,0,15.75,6Z" transform="translate(8 8)" fill="#262628"/>
</svg>
