<svg id="Layer_2" data-name="Layer 2" xmlns="http://www.w3.org/2000/svg" width="24" height="24" viewBox="0 0 24 24">
  <g id="message-square">
    <rect id="Rectangle_676" data-name="Rectangle 676" width="24" height="24" fill="#9b9b9b" opacity="0"/>
    <path id="Path_15221" data-name="Path 15221" d="M19,3H5A3,3,0,0,0,2,6V21a1,1,0,0,0,1.51.86L8,19.14A1,1,0,0,1,8.55,19H19a3,3,0,0,0,3-3V6A3,3,0,0,0,19,3ZM8,12a1,1,0,1,1,1-1A1,1,0,0,1,8,12Zm4,0a1,1,0,1,1,1-1A1,1,0,0,1,12,12Zm4,0a1,1,0,1,1,1-1A1,1,0,0,1,16,12Z" fill="#9b9b9b"/>
  </g>
</svg>
