<svg xmlns="http://www.w3.org/2000/svg" width="28" height="22.789" viewBox="0 0 28 22.789">
  <g id="_030-delivery-bike" data-name="030-delivery-bike" transform="translate(0 0)">
    <path id="Path_36106" data-name="Path 36106" d="M127,257.558a5.213,5.213,0,0,0-1.62-3.016l-2,3.016Zm0,0" transform="translate(-116.632 -240.752)"/>
    <path id="Path_36107" data-name="Path 36107" d="M7.384,229.757a5.217,5.217,0,1,0,2.986,5.566H3.688Zm0,0" transform="translate(0 -216.931)"/>
    <path id="Path_36108" data-name="Path 36108" d="M326.405,229.281a5.268,5.268,0,0,0-.623.037l1.412,4.955-1.578.45-1.412-4.955a5.216,5.216,0,1,0,2.2-.488Zm0,0" transform="translate(-303.623 -216.927)"/>
    <path id="Path_36109" data-name="Path 36109" d="M20.067,5.229H16.79V6.87h2.039L19.3,8.513H11.632V0H0V10.154H9.283l-1.9,2.856a5.244,5.244,0,0,1,1.365.91l1.708-2.572,1.364,5.588H10.371a5.23,5.23,0,0,1,0,1.641h2.864L20,10.992l.58,2.034a5.174,5.174,0,0,1,1.578-.45ZM8.076,4.256V5.9H3.558V4.256ZM13.3,16.045l-1.438-5.891h6.7Zm0,0" transform="translate(-0.001)"/>
  </g>
</svg>
