<svg xmlns="http://www.w3.org/2000/svg" width="27.032" height="24.406" viewBox="0 0 27.032 24.406">
  <g id="_038-restaurant" data-name="038-restaurant" transform="translate(0 -0.5)">
    <path id="Path_36101" data-name="Path 36101" d="M72.048,2.216V.5H69.473V3.946Zm0,0" transform="translate(-65.805)"/>
    <path id="Path_36102" data-name="Path 36102" d="M19.477,164.07H10.338v-8.507H0v16.219H22.261v-8.146a9.1,9.1,0,0,1-2.784.434Zm0,0" transform="translate(0 -146.876)"/>
    <path id="Path_36103" data-name="Path 36103" d="M34.242,13.245h8.58a9.108,9.108,0,0,1,2.331-5.194L43.565,6.984Zm0,0" transform="translate(-32.434 -6.142)"/>
    <path id="Path_36104" data-name="Path 36104" d="M307.853,83.293a1.777,1.777,0,0,0-1.166.436l-.52.452-.52-.452a1.779,1.779,0,1,0-1.721,3.033l.545.179V89.4h3.391V86.941l.545-.179a1.779,1.779,0,0,0-.555-3.469Zm0,0" transform="translate(-286.721 -78.422)"/>
    <path id="Path_36105" data-name="Path 36105" d="M233.371.5a7.563,7.563,0,0,0-7.555,7.555v7.555h7.555a7.555,7.555,0,1,0,0-15.109Zm3.248,9.112v2.948H230.06V9.612a3.363,3.363,0,1,1,3.279-5.871,3.363,3.363,0,1,1,3.279,5.871Zm0,0" transform="translate(-213.894)"/>
  </g>
</svg>
