<svg xmlns="http://www.w3.org/2000/svg" width="40" height="40" viewBox="0 0 40 40">
    <g id="Rectangle_3496" data-name="Rectangle 3496" fill="#fff" stroke="#efefef" stroke-width="1">
        <rect width="40" height="40" rx="8" stroke="none"/>
        <rect x="0.5" y="0.5" width="39" height="39" rx="7.5" fill="none"/>
    </g>
    <g id="Icon_ionic-logo-game-controller-b" data-name="Icon ionic-logo-game-controller-b" transform="translate(4.75 2.996)">
        <path id="Path_36158" data-name="Path 36158" d="M9.5,14.386a1.364,1.364,0,1,0,1.357,1.364A1.359,1.359,0,0,0,9.5,14.386Z" transform="translate(-0.563 -0.61)"/>
        <path id="Path_36159" data-name="Path 36159" d="M30.122,16.745c-1.361-5.785-2.8-8.857-5.68-9.727a5.629,5.629,0,0,0-1.649-.261c-1.771,0-3.01.961-6.168.961s-4.4-.961-6.168-.961a5.566,5.566,0,0,0-1.649.261c-2.882.869-4.319,3.948-5.68,9.727s-1.11,9.962.494,10.74a1.844,1.844,0,0,0,.8.183c1.393,0,2.894-1.556,4.345-3.4,1.649-2.1,2.06-2.157,7.079-2.157h1.56c5.012,0,5.429.052,7.079,2.157,1.444,1.843,2.952,3.4,4.345,3.4a1.864,1.864,0,0,0,.8-.183C31.233,26.7,31.477,22.524,30.122,16.745Zm-21.249.961a2.59,2.59,0,1,1,2.516-2.589A2.558,2.558,0,0,1,8.873,17.706Zm11.1-1.275a1.314,1.314,0,1,1,1.29-1.314A1.3,1.3,0,0,1,19.969,16.432Zm2.817,2.87a1.311,1.311,0,1,1,1.29-1.307A1.3,1.3,0,0,1,22.787,19.3Zm0-5.739a1.314,1.314,0,1,1,1.29-1.314A1.3,1.3,0,0,1,22.787,13.562Zm2.817,2.87a1.314,1.314,0,1,1,1.29-1.314A1.3,1.3,0,0,1,25.6,16.432Z"/>
    </g>
</svg>