<svg xmlns="http://www.w3.org/2000/svg" width="33.272" height="13.212" viewBox="0 0 33.272 13.212">
  <g id="googlepay" transform="translate(-0.003 0.005)">
    <path id="Path_36122" data-name="Path 36122" d="M191.329,15.684v3.873H190.1V9.992h3.259a2.946,2.946,0,0,1,2.11.828,2.765,2.765,0,0,1,0,4.048,2.937,2.937,0,0,1-2.11.814h-2.03Zm0-4.514v3.339h2.06a1.654,1.654,0,0,0,1.216-2.832,1.6,1.6,0,0,0-1.216-.507h-2.06Z" transform="translate(-175.59 -9.233)" fill="#5f6368"/>
    <path id="Path_36123" data-name="Path 36123" d="M274.5,46.78a3.047,3.047,0,0,1,2.15.728,2.581,2.581,0,0,1,.788,2v4.033h-1.175v-.908h-.053a2.347,2.347,0,0,1-2.03,1.122,2.639,2.639,0,0,1-1.809-.641,2.047,2.047,0,0,1-.728-1.6,1.943,1.943,0,0,1,.768-1.616,3.246,3.246,0,0,1,2.05-.6,3.628,3.628,0,0,1,1.8.4v-.281a1.4,1.4,0,0,0-.507-1.087,1.74,1.74,0,0,0-1.186-.448,1.881,1.881,0,0,0-1.629.868l-1.082-.681A3.012,3.012,0,0,1,274.5,46.78Zm-1.59,4.754a.981.981,0,0,0,.408.8,1.5,1.5,0,0,0,.955.321,1.959,1.959,0,0,0,1.382-.574,1.8,1.8,0,0,0,.61-1.348,2.51,2.51,0,0,0-1.6-.458,2.077,2.077,0,0,0-1.248.361A1.077,1.077,0,0,0,272.914,51.534Z" transform="translate(-250.913 -43.214)" fill="#5f6368"/>
    <path id="Path_36124" data-name="Path 36124" d="M356.766,49.58l-4.1,9.428H351.4l1.522-3.3-2.7-6.129h1.335l1.95,4.7h.027l1.9-4.7Z" transform="translate(-323.491 -45.801)" fill="#5f6368"/>
    <path id="Path_36125" data-name="Path 36125" d="M77.276,60.117A6.547,6.547,0,0,0,77.182,59H72v2.116h2.968a2.544,2.544,0,0,1-1.1,1.67V64.16h1.771A5.373,5.373,0,0,0,77.276,60.117Z" transform="translate(-66.502 -54.502)" fill="#4285f4"/>
    <path id="Path_36126" data-name="Path 36126" d="M12.579,90.223A5.259,5.259,0,0,0,16.221,88.9L14.45,87.523A3.333,3.333,0,0,1,9.495,85.78H7.67V87.2A5.5,5.5,0,0,0,12.579,90.223Z" transform="translate(-7.082 -79.238)" fill="#34a853"/>
    <path id="Path_36127" data-name="Path 36127" d="M2.413,43.189a3.292,3.292,0,0,1,0-2.1V39.67H.588a5.5,5.5,0,0,0,0,4.934Z" transform="translate(0 -36.647)" fill="#fbbc04"/>
    <path id="Path_36128" data-name="Path 36128" d="M12.581,2.171a2.983,2.983,0,0,1,2.108.824h0l1.568-1.568A5.279,5.279,0,0,0,12.581,0,5.494,5.494,0,0,0,7.671,3.023L9.5,4.439A3.286,3.286,0,0,1,12.581,2.171Z" transform="translate(-7.083 0)" fill="#ea4335"/>
  </g>
</svg>
