<svg xmlns="http://www.w3.org/2000/svg" width="40" height="40" viewBox="0 0 40 40">
  <g id="Rectangle_37" data-name="Rectangle 37" fill="#fff" stroke="#efefef" stroke-width="1">
    <rect width="40" height="40" rx="8" stroke="none"/>
    <rect x="0.5" y="0.5" width="39" height="39" rx="7.5" fill="none"/>
  </g>
  <path id="Icon_awesome-file-invoice" data-name="Icon awesome-file-invoice" d="M16,13.335H5.335v3.334H16Zm4.946-7.866L15.51.365A1.38,1.38,0,0,0,14.566,0h-.339V6.668H21.34V6.35A1.208,1.208,0,0,0,20.951,5.469Zm-8.5,1.615V0H1.334A1.291,1.291,0,0,0,0,1.25V25.42a1.291,1.291,0,0,0,1.334,1.25H20.006a1.291,1.291,0,0,0,1.334-1.25V8.334H13.782A1.3,1.3,0,0,1,12.448,7.084ZM3.557,3.75A.431.431,0,0,1,4,3.334H8.447a.431.431,0,0,1,.445.417v.833A.431.431,0,0,1,8.447,5H4a.431.431,0,0,1-.445-.417Zm0,3.334A.431.431,0,0,1,4,6.668H8.447a.431.431,0,0,1,.445.417v.833a.431.431,0,0,1-.445.417H4a.431.431,0,0,1-.445-.417ZM17.783,22.92a.431.431,0,0,1-.445.417H12.893a.431.431,0,0,1-.445-.417v-.833a.431.431,0,0,1,.445-.417h4.446a.431.431,0,0,1,.445.417Zm0-10.418v5a.862.862,0,0,1-.889.833H4.446a.862.862,0,0,1-.889-.833v-5a.862.862,0,0,1,.889-.833H16.894A.862.862,0,0,1,17.783,12.5Z" transform="translate(9.33 6.665)" fill="#262628"/>
</svg>
