<svg xmlns="http://www.w3.org/2000/svg" width="14" height="14" viewBox="0 0 14 14">
  <g id="Layer_2" data-name="Layer 2" transform="translate(0.31 0.5)">
    <g id="phone-call">
      <rect id="Rectangle_615" data-name="Rectangle 615" width="14" height="14" transform="translate(-0.31 -0.5)" fill="#9b9b9b" opacity="0"/>
      <path id="Path_3259" data-name="Path 3259" d="M12.569,7.138a1.707,1.707,0,0,1,1.707,1.707.569.569,0,1,0,1.138,0A2.845,2.845,0,0,0,12.569,6a.569.569,0,1,0,0,1.138Z" transform="translate(-5.172 -2.586)" fill="#9b9b9b"/>
      <path id="Path_3260" data-name="Path 3260" d="M12.569,3.138a3.983,3.983,0,0,1,3.983,3.983.569.569,0,0,0,1.138,0A5.121,5.121,0,0,0,12.569,2a.569.569,0,1,0,0,1.138Z" transform="translate(-5.172 -0.862)" fill="#9b9b9b"/>
      <path id="Path_3261" data-name="Path 3261" d="M13.237,9.914a.569.569,0,0,0-.41-.37L9.414,8.765a.569.569,0,0,0-.523.148c-.08.074-.085.08-.455.785A5.638,5.638,0,0,1,5.664,6.916c.723-.364.728-.364.8-.449a.569.569,0,0,0,.148-.523L5.835,2.569a.569.569,0,0,0-.37-.41,2.156,2.156,0,0,0-.41-.1A2.242,2.242,0,0,0,4.617,2,2.617,2.617,0,0,0,2,4.617a8.773,8.773,0,0,0,8.762,8.762,2.617,2.617,0,0,0,2.617-2.617,2.714,2.714,0,0,0-.034-.432A2.469,2.469,0,0,0,13.237,9.914Z" transform="translate(-0.862 -0.862)" fill="#9b9b9b"/>
    </g>
  </g>
</svg>
