<svg id="g12" xmlns="http://www.w3.org/2000/svg" width="266.084" height="126.339" viewBox="0 0 266.084 126.339">
  <path id="path14" d="M171.044-997.092v-34.16h9.49a29.637,29.637,0,0,1,7.027.509,7.777,7.777,0,0,1,4.216,3.348,11.879,11.879,0,0,1,1.7,6.655,12.78,12.78,0,0,1-.975,5.288,9.185,9.185,0,0,1-2.483,3.371,8.051,8.051,0,0,1-3.063,1.614,28.979,28.979,0,0,1-6.127.493h-3.848v12.881Zm5.936-28.387v9.733h3.227a13.085,13.085,0,0,0,4.66-.541,3.98,3.98,0,0,0,1.842-1.686,5.194,5.194,0,0,0,.669-2.664,4.925,4.925,0,0,0-.935-3.085,3.98,3.98,0,0,0-2.374-1.527,24.757,24.757,0,0,0-4.243-.231Zm21.163,28.387v-34.16h5.936v34.16Zm11.577,0v-34.16h21.7v5.773h-15.76v7.586H230.31v5.773H215.655v9.256h16.332v5.773Zm27.385,0v-34.16h5.935v15.132L255-1031.252h7.955l-11.059,13.3,11.632,20.857h-7.654l-8.064-16.038-4.769,5.709v10.329Zm55.881,0h-6.393l-2.531-7.776H272.308l-2.435,7.776H263.6l11.38-34.16h6.27Zm-10.847-13.549-4.073-12.643-3.957,12.643Zm14.006,13.549v-34.16h12.464a18.51,18.51,0,0,1,6.829.923,7.048,7.048,0,0,1,3.411,3.268,11.106,11.106,0,0,1,1.282,5.383,10.083,10.083,0,0,1-1.931,6.353,8.823,8.823,0,0,1-5.779,3.157,14.036,14.036,0,0,1,3.152,2.862,39.2,39.2,0,0,1,3.357,5.55l3.575,6.663h-7.075l-4.244-7.459a47.373,47.373,0,0,0-3.131-5.009,4.606,4.606,0,0,0-1.781-1.415,8.624,8.624,0,0,0-2.995-.381h-1.2v14.265Zm5.935-19.7h4.38a19.5,19.5,0,0,0,5.315-.421,3.278,3.278,0,0,0,1.657-1.447,5,5,0,0,0,.6-2.568,4.585,4.585,0,0,0-.792-2.791,3.466,3.466,0,0,0-2.224-1.336,41.951,41.951,0,0,0-4.319-.12H302.08Zm23.626,19.7v-34.16h5.744l12.062,22.893v-22.893H349v34.16h-5.929l-11.878-22.456v22.456Zm29.357,0v-34.16H361v34.16Zm37.98,0H386.65l-2.531-7.776H372.364l-2.436,7.776h-6.276l11.38-34.16h6.27Zm-10.848-13.549-4.073-12.643-3.957,12.643Z" transform="translate(-126.959 1055.254)" fill-rule="evenodd"/>
  <path id="path16" d="M99.1-985.007a1.034,1.034,0,0,1,1.1.948,1.034,1.034,0,0,1-1.1.949,1.034,1.034,0,0,1-1.1-.949,1.034,1.034,0,0,1,1.1-.948" transform="translate(-83.787 1028.154)" fill-rule="evenodd"/>
  <path id="path18" d="M129.688-985.007a1.034,1.034,0,0,1,1.1.948,1.034,1.034,0,0,1-1.1.949,1.034,1.034,0,0,1-1.1-.949,1.034,1.034,0,0,1,1.1-.948" transform="translate(-101.864 1028.154)" fill-rule="evenodd"/>
  <path id="path20" d="M68.8-1072.783c-2.12,9.507,1.794,5.155,2.76,8.876.7,2.708.991,8.6,1.31,11.709l.034.024c-.71,1.737-.841,1.632-.841,6.911,0,5.583,5.668,15.729,12.661,15.729s12.661-7.042,12.661-15.729a19.128,19.128,0,0,0-.767-5.4,1.094,1.094,0,0,0,.239-.236c.979-2.745,1.636-13.248,1.226-16.57-1.147,2.138-2.017,12.207-2.609,15.577-5.255,1.28-16.148,2.51-20.383-.705-1.176-.892-.906-1.917-1.182-3.767-.444-2.974-1.291-5.566-1.874-8.342l4.26.535a20.234,20.234,0,0,0,1.008,5.878c.917-1.384-.181-4.44-.5-5.893l4.344.019c-.089,3.4,0,3.651.435,4.6l.427-4.67,10.763-1.626-1.168,7.384c1.656-1.747,1.877-5.315,1.55-7.91,3.852-1.01,7.505-3.419,6.589-7.8a.641.641,0,0,0-.118.308.969.969,0,0,1-.114.311c-.983,3.063-1.541,4.065-6.241,5.646a42.716,42.716,0,0,1-10.986,1.894c-21.193,1.279-9.631-6.475-11.391-10.52l-1.573,3.245c-4.559-1.475-6.434-6.809-1.165-9.3,4.469-2.111,10.231-1.079,14.763.234l-5.584,2c8.355,1.13,15.4-7.725,21.544-7.01,3.741.435,9.463,9.123,5.844,13.766-1.3,1.663-2.044,1.693-3.583,2.553-1.076.6-.311.132-.792.5,7.194-.009,9.2-8.083,4.244-14.591-5.233-6.868-9.675-3.775-16.245-.05-5.143,2.915-2.628,2.682-8.061.849C64.182-1089.788,57.652-1075.089,68.8-1072.783Zm5.9,21.761a18.947,18.947,0,0,0,9.455,2.289,54.138,54.138,0,0,0,10.689-1.2c.533.66.873.95.873,4.676,0,5.133-4.921,14.038-10.991,14.038s-10.992-6.285-10.992-14.038a17.331,17.331,0,0,1,.966-5.76" transform="translate(-63.242 1089.227)" fill-rule="evenodd"/>
  <path id="path22" d="M117.234-1021.546c1.1-1.527,1.522-5.242,1.646-7.413-1.544,1.53-1.92,5.331-1.646,7.413" transform="translate(-95.106 1053.91)" fill-rule="evenodd"/>
  <path id="path24" d="M113.584-968.536c-1.882,1.925-6.694,2.607-8.664.509,1.28,2.716,6.155,3.729,8.664-.509" transform="translate(-87.875 1018.502)" fill-rule="evenodd"/>
  <path id="path26" d="M85.117-935.215H342.255v-1.625H85.117Z" transform="translate(-76.171 999.928)" fill-rule="evenodd"/>
  <path id="path28" d="M493.945-791.931V-795.7h.526a.279.279,0,0,1,.192.052.294.294,0,0,1,.072.176l.055.455a1.788,1.788,0,0,1,.468-.551.977.977,0,0,1,.6-.2.773.773,0,0,1,.457.128l-.116.679a.142.142,0,0,1-.047.094.16.16,0,0,1-.1.028.588.588,0,0,1-.149-.026,1,1,0,0,0-.25-.026.755.755,0,0,0-.478.155,1.2,1.2,0,0,0-.337.458v2.346Zm6.389-3.827a2.018,2.018,0,0,1,.757.136,1.635,1.635,0,0,1,.578.385,1.717,1.717,0,0,1,.37.61,2.349,2.349,0,0,1,.13.8,2.355,2.355,0,0,1-.13.808,1.746,1.746,0,0,1-.37.613,1.605,1.605,0,0,1-.578.39,2.02,2.02,0,0,1-.757.136,2.034,2.034,0,0,1-.758-.136,1.616,1.616,0,0,1-.581-.39,1.742,1.742,0,0,1-.374-.613,2.318,2.318,0,0,1-.133-.808,2.311,2.311,0,0,1,.133-.8,1.713,1.713,0,0,1,.374-.61,1.645,1.645,0,0,1,.581-.385A2.031,2.031,0,0,1,500.334-795.757Zm0,3.184a.785.785,0,0,0,.688-.316,1.6,1.6,0,0,0,.222-.925,1.615,1.615,0,0,0-.222-.929.782.782,0,0,0-.688-.32.792.792,0,0,0-.7.321,1.61,1.61,0,0,0-.225.928,1.591,1.591,0,0,0,.225.923A.8.8,0,0,0,500.334-792.573Zm5.279-4.815v3.126h.167a.315.315,0,0,0,.141-.026.367.367,0,0,0,.109-.1l.925-1.157a.542.542,0,0,1,.13-.116.348.348,0,0,1,.182-.042h.819l-1.157,1.4a1.611,1.611,0,0,1-.127.141.844.844,0,0,1-.141.113.682.682,0,0,1,.134.128c.038.05.077.1.116.159l1.241,1.828h-.809a.384.384,0,0,1-.178-.037.35.35,0,0,1-.13-.125l-.947-1.429a.3.3,0,0,0-.109-.11.392.392,0,0,0-.163-.026h-.2v1.726h-.9v-5.457Zm9.023,2.064a.513.513,0,0,1-.034.185.621.621,0,0,1-.082.153l-1.77,2.358h1.836v.7h-2.877v-.378a.48.48,0,0,1,.029-.149.524.524,0,0,1,.091-.163L513.614-795h-1.8v-.694h2.822Zm5.468,3.393h-.4a.429.429,0,0,1-.2-.039.247.247,0,0,1-.109-.155l-.08-.268a3.044,3.044,0,0,1-.277.225,1.669,1.669,0,0,1-.282.164,1.43,1.43,0,0,1-.308.1,1.843,1.843,0,0,1-.363.033,1.409,1.409,0,0,1-.435-.065.944.944,0,0,1-.342-.192.886.886,0,0,1-.224-.32,1.147,1.147,0,0,1-.08-.444.89.89,0,0,1,.111-.422,1.05,1.05,0,0,1,.368-.374,2.33,2.33,0,0,1,.685-.277,4.754,4.754,0,0,1,1.063-.125v-.22a.843.843,0,0,0-.157-.561.578.578,0,0,0-.46-.181,1.1,1.1,0,0,0-.363.052,1.39,1.39,0,0,0-.252.115q-.107.065-.2.117a.4.4,0,0,1-.2.052.263.263,0,0,1-.156-.048.373.373,0,0,1-.1-.117l-.164-.29a2.2,2.2,0,0,1,1.549-.595,1.486,1.486,0,0,1,.583.108,1.236,1.236,0,0,1,.433.3,1.291,1.291,0,0,1,.271.462,1.78,1.78,0,0,1,.092.587Zm-1.742-.565a1.167,1.167,0,0,0,.254-.026.97.97,0,0,0,.22-.077,1.233,1.233,0,0,0,.2-.128,1.847,1.847,0,0,0,.193-.177v-.636a4.872,4.872,0,0,0-.654.068,1.73,1.73,0,0,0-.423.127.546.546,0,0,0-.226.18.4.4,0,0,0-.068.224.4.4,0,0,0,.14.342A.6.6,0,0,0,518.363-792.5Zm5.66-4.892v2.046l.591-.242v.522a.19.19,0,0,1-.123.2l-.468.2v2.732h-.9v-2.413l-.6.243v-.536a.176.176,0,0,1,.112-.176l.483-.206v-2.369Zm4.684,1.631a2.021,2.021,0,0,1,.757.136,1.637,1.637,0,0,1,.578.385,1.72,1.72,0,0,1,.37.61,2.355,2.355,0,0,1,.13.8,2.362,2.362,0,0,1-.13.808,1.749,1.749,0,0,1-.37.613,1.607,1.607,0,0,1-.578.39,2.022,2.022,0,0,1-.757.136,2.034,2.034,0,0,1-.758-.136,1.618,1.618,0,0,1-.581-.39,1.748,1.748,0,0,1-.374-.613,2.332,2.332,0,0,1-.133-.808,2.326,2.326,0,0,1,.133-.8,1.72,1.72,0,0,1,.374-.61,1.648,1.648,0,0,1,.581-.385A2.033,2.033,0,0,1,528.708-795.757Zm0,3.184a.785.785,0,0,0,.688-.316,1.6,1.6,0,0,0,.222-.925,1.617,1.617,0,0,0-.222-.929.782.782,0,0,0-.688-.32.791.791,0,0,0-.7.321,1.607,1.607,0,0,0-.225.928,1.589,1.589,0,0,0,.225.923A.8.8,0,0,0,528.708-792.573Zm7.064-2.751a.506.506,0,0,1-.034.185.615.615,0,0,1-.082.153l-1.77,2.358h1.836v.7h-2.877v-.378a.482.482,0,0,1,.029-.149.534.534,0,0,1,.091-.163L534.749-795h-1.8v-.694h2.823Zm-.784-1.488a.534.534,0,0,1-.047.222.6.6,0,0,1-.125.182.59.59,0,0,1-.185.123.574.574,0,0,1-.227.046.526.526,0,0,1-.218-.046.59.59,0,0,1-.178-.123.591.591,0,0,1-.121-.182.556.556,0,0,1-.046-.222.572.572,0,0,1,.046-.226.617.617,0,0,1,.121-.184.575.575,0,0,1,.178-.125.518.518,0,0,1,.218-.046.565.565,0,0,1,.227.046.575.575,0,0,1,.185.125.622.622,0,0,1,.125.184A.549.549,0,0,1,534.988-796.811Zm4.873,1.054a1.793,1.793,0,0,1,.648.114,1.413,1.413,0,0,1,.509.332,1.522,1.522,0,0,1,.334.536,2.054,2.054,0,0,1,.12.726,1.383,1.383,0,0,1-.008.17.267.267,0,0,1-.033.106.132.132,0,0,1-.064.056.273.273,0,0,1-.1.017h-2.3a1.307,1.307,0,0,0,.308.852.956.956,0,0,0,.711.271,1.229,1.229,0,0,0,.376-.051,1.7,1.7,0,0,0,.276-.114q.118-.062.206-.113a.339.339,0,0,1,.172-.052.2.2,0,0,1,.095.022.215.215,0,0,1,.069.062l.261.33a1.484,1.484,0,0,1-.334.3,1.88,1.88,0,0,1-.386.191,2.053,2.053,0,0,1-.41.1,2.891,2.891,0,0,1-.405.03,1.969,1.969,0,0,1-.722-.131,1.628,1.628,0,0,1-.58-.385,1.819,1.819,0,0,1-.388-.631,2.471,2.471,0,0,1-.141-.872,2.105,2.105,0,0,1,.123-.726,1.749,1.749,0,0,1,.354-.591,1.674,1.674,0,0,1,.562-.4A1.835,1.835,0,0,1,539.861-795.757Zm.018.65a.824.824,0,0,0-.614.224,1.109,1.109,0,0,0-.283.635h1.683a1.156,1.156,0,0,0-.047-.333.77.77,0,0,0-.145-.273.688.688,0,0,0-.247-.186A.836.836,0,0,0,539.879-795.107Zm4.158,3.177V-795.7h.548a.22.22,0,0,1,.229.165l.062.3a2.033,2.033,0,0,1,.238-.213,1.666,1.666,0,0,1,.265-.165,1.313,1.313,0,0,1,.3-.107,1.554,1.554,0,0,1,.348-.037,1.322,1.322,0,0,1,.541.1,1.066,1.066,0,0,1,.394.294,1.284,1.284,0,0,1,.24.452,1.942,1.942,0,0,1,.081.579v2.4h-.9v-2.4a.813.813,0,0,0-.157-.535.582.582,0,0,0-.474-.188.922.922,0,0,0-.435.107,1.545,1.545,0,0,0-.384.29v2.725Zm6.916-3.768v3.768h-.9V-795.7Zm.134-1.1a.521.521,0,0,1-.047.22.607.607,0,0,1-.125.18.6.6,0,0,1-.184.122.554.554,0,0,1-.225.047.53.53,0,0,1-.219-.047.58.58,0,0,1-.18-.122.6.6,0,0,1-.122-.18.54.54,0,0,1-.046-.22.577.577,0,0,1,.046-.228.59.59,0,0,1,.122-.184.58.58,0,0,1,.18-.123.528.528,0,0,1,.219-.046.552.552,0,0,1,.225.046.6.6,0,0,1,.184.123.6.6,0,0,1,.125.184A.556.556,0,0,1,551.087-796.8Zm5.631,4.866h-.4a.431.431,0,0,1-.2-.039.245.245,0,0,1-.108-.155l-.081-.268a2.994,2.994,0,0,1-.277.225,1.654,1.654,0,0,1-.282.164,1.425,1.425,0,0,1-.308.1,1.843,1.843,0,0,1-.363.033,1.41,1.41,0,0,1-.435-.065.94.94,0,0,1-.342-.192.875.875,0,0,1-.224-.32,1.151,1.151,0,0,1-.08-.444.891.891,0,0,1,.111-.422,1.048,1.048,0,0,1,.368-.374,2.337,2.337,0,0,1,.685-.277,4.758,4.758,0,0,1,1.063-.125v-.22a.842.842,0,0,0-.157-.561.577.577,0,0,0-.46-.181,1.1,1.1,0,0,0-.363.052,1.393,1.393,0,0,0-.252.115c-.071.043-.138.082-.2.117a.4.4,0,0,1-.2.052.26.26,0,0,1-.156-.048.371.371,0,0,1-.105-.117l-.163-.29a2.2,2.2,0,0,1,1.549-.595,1.486,1.486,0,0,1,.583.108,1.24,1.24,0,0,1,.433.3,1.291,1.291,0,0,1,.271.462,1.778,1.778,0,0,1,.092.587Zm-1.741-.565a1.161,1.161,0,0,0,.254-.026.966.966,0,0,0,.22-.077,1.218,1.218,0,0,0,.2-.128,1.879,1.879,0,0,0,.193-.177v-.636a4.885,4.885,0,0,0-.655.068,1.731,1.731,0,0,0-.423.127.546.546,0,0,0-.226.18.406.406,0,0,0-.068.224.4.4,0,0,0,.141.342.6.6,0,0,0,.364.1Zm7.757-.114H563.8v-3.1c0-.12,0-.246.011-.379l-.754.639a.281.281,0,0,1-.1.056.351.351,0,0,1-.1.014.281.281,0,0,1-.132-.032.249.249,0,0,1-.089-.071l-.283-.393,1.6-1.377h.736v4.638h.944v.679h-2.9Zm6.992-1.439a1.549,1.549,0,0,1-.533-.1,1.351,1.351,0,0,1-.466-.289,1.414,1.414,0,0,1-.329-.478,1.656,1.656,0,0,1-.124-.666,1.72,1.72,0,0,1,.131-.669,1.668,1.668,0,0,1,.367-.547,1.7,1.7,0,0,1,.566-.371,1.892,1.892,0,0,1,.729-.136,1.946,1.946,0,0,1,.724.129,1.575,1.575,0,0,1,.548.36,1.566,1.566,0,0,1,.348.555,2,2,0,0,1,.121.709,2.509,2.509,0,0,1-.042.466,2.407,2.407,0,0,1-.12.423,2.96,2.96,0,0,1-.187.4q-.109.193-.243.388l-1.2,1.733a.475.475,0,0,1-.182.148.619.619,0,0,1-.278.061h-.823l1.629-2.06c.041-.051.079-.1.116-.15s.071-.1.105-.147a1.431,1.431,0,0,1-.4.177,1.68,1.68,0,0,1-.457.061Zm1.222-1.59a1.076,1.076,0,0,0-.066-.388.779.779,0,0,0-.185-.288.8.8,0,0,0-.284-.18,1.008,1.008,0,0,0-.361-.062.937.937,0,0,0-.366.068.788.788,0,0,0-.277.19.83.83,0,0,0-.177.288,1.053,1.053,0,0,0-.062.366.93.93,0,0,0,.227.677.855.855,0,0,0,.643.234,1,1,0,0,0,.387-.07.827.827,0,0,0,.285-.19.818.818,0,0,0,.177-.287A1.042,1.042,0,0,0,570.948-795.64Zm6.875-1.6v.393a.9.9,0,0,1-.037.284,1.83,1.83,0,0,1-.075.183l-1.985,4.142a.618.618,0,0,1-.174.218.475.475,0,0,1-.3.09H574.6l2.031-4.058a2.1,2.1,0,0,1,.283-.43H574.4a.2.2,0,0,1-.145-.063.2.2,0,0,1-.062-.147v-.613Zm3.991,3.191a1.549,1.549,0,0,1-.533-.1,1.348,1.348,0,0,1-.466-.289,1.424,1.424,0,0,1-.329-.478,1.662,1.662,0,0,1-.123-.666,1.715,1.715,0,0,1,.131-.669,1.665,1.665,0,0,1,.366-.547,1.71,1.71,0,0,1,.566-.371,1.894,1.894,0,0,1,.73-.136,1.946,1.946,0,0,1,.724.129,1.577,1.577,0,0,1,.548.36,1.571,1.571,0,0,1,.348.555,1.985,1.985,0,0,1,.121.709,2.547,2.547,0,0,1-.041.466,2.466,2.466,0,0,1-.12.423,2.976,2.976,0,0,1-.188.4q-.108.193-.243.388l-1.2,1.733a.476.476,0,0,1-.183.148.62.62,0,0,1-.278.061h-.823l1.629-2.06c.041-.051.08-.1.116-.15s.071-.1.1-.147a1.418,1.418,0,0,1-.4.177A1.679,1.679,0,0,1,581.814-794.049Zm1.223-1.59a1.073,1.073,0,0,0-.065-.388.786.786,0,0,0-.185-.288.805.805,0,0,0-.284-.18,1.011,1.011,0,0,0-.362-.062.937.937,0,0,0-.366.068.792.792,0,0,0-.277.19.836.836,0,0,0-.176.288,1.054,1.054,0,0,0-.062.366.931.931,0,0,0,.227.677.856.856,0,0,0,.643.234,1,1,0,0,0,.387-.07.824.824,0,0,0,.284-.19.812.812,0,0,0,.176-.287,1.037,1.037,0,0,0,.059-.357" transform="translate(-317.813 918.211)" fill-rule="evenodd"/>
  <path id="path30" d="M85.117-809.062H342.255v-1.625H85.117Z" transform="translate(-76.171 926.002)" fill-rule="evenodd"/>
  <path id="path32" d="M188.182-882.829a5.559,5.559,0,0,1-1.787-1.849,7.422,7.422,0,0,1-.807-2.154,14.509,14.509,0,0,1-2.014,1.74,15.437,15.437,0,0,1-2.8,1.623,6.306,6.306,0,0,1-2.4.64,4.8,4.8,0,0,1-2.319-1.373,4.92,4.92,0,0,1-1.087-2.145,9.153,9.153,0,0,1-.2-2.677,26.192,26.192,0,0,1,.339-2.878c.162-.96.347-1.9.539-2.816a20.021,20.021,0,0,0,.385-2.512,1.761,1.761,0,0,0-1.7.273,9.074,9.074,0,0,0-1.826,1.74c-.632.765-1.295,1.646-1.988,2.652s-1.4,2.013-2.119,3.011-1.464,1.95-2.219,2.816a10.464,10.464,0,0,1-2.3,2.036,1.187,1.187,0,0,1-1.017-.39,2.918,2.918,0,0,1-.586-1.03,4.617,4.617,0,0,1-.254-1.1,1.663,1.663,0,0,1,0-.593,14.332,14.332,0,0,1,.208-2.442c.131-.811.293-1.614.47-2.426s.339-1.615.478-2.418a15.624,15.624,0,0,0,.2-2.5c-.332-.725-.717-.881-1.148-.453a9.066,9.066,0,0,0-1.472,2.169q-.808,1.533-1.687,3.612t-1.788,3.885a18.516,18.516,0,0,1-1.78,2.949c-.585.757-1.14,1.037-1.649.82a1.218,1.218,0,0,1-1.133-.523,2.638,2.638,0,0,1-.315-1.292,12.028,12.028,0,0,1-2.189,1.885,13.257,13.257,0,0,1-3.907,1.826,12.214,12.214,0,0,1-4.045.461,8.87,8.87,0,0,1-3.653-.983,7.624,7.624,0,0,1-2.759-2.489,7.084,7.084,0,0,1-.634-1.168c-.018.038-.038.076-.059.115a2.989,2.989,0,0,1-.771.866,2.924,2.924,0,0,1-.948.531q-3.791.773-6.481,1.3t-4.492.866c-1.2.226-2.165.413-2.89.546s-1.272.234-1.641.273-.64.078-.794.094-.254.023-.316.023c-.031,0-.185-.016-.478-.047a2.013,2.013,0,0,1-.948-.429,3.351,3.351,0,0,1-.925-1.279,6.507,6.507,0,0,1-.4-2.582l11.513-14.4L112.145-897.5c0-.492.008-.967.023-1.443a4.968,4.968,0,0,1,.2-1.3,2.644,2.644,0,0,1,.586-1.022,2.23,2.23,0,0,1,1.133-.624c2.342-.64,4.739-1.264,7.174-1.873A46.913,46.913,0,0,1,128.575-905a3.578,3.578,0,0,1,.971,2.722,7.77,7.77,0,0,1-.971,3.105,18.231,18.231,0,0,1-2.273,3.292c-.956,1.116-1.927,2.208-2.913,3.292s-1.949,2.13-2.866,3.152a21.456,21.456,0,0,0-2.2,2.816,21.193,21.193,0,0,0,4-.39c1.341-.265,2.69-.531,4.038-.8s2.728-.491,4.115-.663a17.145,17.145,0,0,1,4.192.023l.077.033a10.812,10.812,0,0,1-.208-1.359,1.736,1.736,0,0,1-1.379-.2,1.082,1.082,0,0,1-.362-.889,3.04,3.04,0,0,1,.386-1.241,8.2,8.2,0,0,1,.832-1.279,5.358,5.358,0,0,1,.971-.959,1.165,1.165,0,0,1,.77-.32,27.557,27.557,0,0,0,1.78-3.908q.8-2.119,1.741-4.088a14.053,14.053,0,0,1,2.327-3.472,6.711,6.711,0,0,1,3.537-2.013,2.168,2.168,0,0,1,1.449.452,2.755,2.755,0,0,1,.809,1.17,5.7,5.7,0,0,1,.362,1.53,13.564,13.564,0,0,1,.093,1.506,8.4,8.4,0,0,1-.724,3.635,9.678,9.678,0,0,1-1.8,2.653A16.774,16.774,0,0,1,143-895.194c-.824.593-1.6,1.17-2.327,1.74a9.95,9.95,0,0,0-1.8,1.8,3.651,3.651,0,0,0-.724,2.24,4.788,4.788,0,0,0,2.736,2.746,7.781,7.781,0,0,0,3.745.273,15.162,15.162,0,0,0,4.046-1.279,39.285,39.285,0,0,0,3.607-1.919,1.039,1.039,0,0,1,.678.18l.046.039,2.443-11.835a6.277,6.277,0,0,1-.093-1.139,3.845,3.845,0,0,1,.185-1.209,2.184,2.184,0,0,1,.586-.96,1.6,1.6,0,0,1,1.172-.39,1.4,1.4,0,0,1,1.4.749,4.148,4.148,0,0,1,.362,1.786,9.416,9.416,0,0,1-.231,2.06c-.147.679-.27,1.193-.355,1.529a6.616,6.616,0,0,0,1.3-1.49c.424-.624.871-1.241,1.333-1.849a9.464,9.464,0,0,1,1.518-1.576,2.825,2.825,0,0,1,1.85-.663,3.689,3.689,0,0,1,2.165,2.145,7.585,7.585,0,0,1,.316,3.019,31.191,31.191,0,0,1-.471,3.363,9.811,9.811,0,0,0-.162,3.176,10.992,10.992,0,0,0,1.626-1.763c.54-.71,1.1-1.483,1.673-2.3s1.156-1.654,1.757-2.5a19.07,19.07,0,0,1,1.9-2.262,9.776,9.776,0,0,1,2.127-1.646,4.9,4.9,0,0,1,2.435-.64,4.374,4.374,0,0,1,1.649,2.262,7.847,7.847,0,0,1,.27,2.817,20.591,20.591,0,0,1-.493,3.128c-.255,1.084-.486,2.153-.678,3.222a15.4,15.4,0,0,0-.27,3.089,5.767,5.767,0,0,0,.693,2.715,2.481,2.481,0,0,0,1.788-.367,14.353,14.353,0,0,0,1.919-1.3c.632-.5,1.233-.975,1.8-1.412a3.842,3.842,0,0,1,.921-.552q.074-1,.212-2.007c.116-.9.232-1.786.339-2.652a21.9,21.9,0,0,0,.154-2.5,2.585,2.585,0,0,1-.585-1.755,3.986,3.986,0,0,1,.455-1.716,4.535,4.535,0,0,1,1.078-1.35,2.687,2.687,0,0,1,1.356-.663,1.462,1.462,0,0,1,1.217.39,2.69,2.69,0,0,1,.678,1.763,19.427,19.427,0,0,1-.432,3.971q-.428,2.06-.693,4.1a19.07,19.07,0,0,0-.139,3.956,6.882,6.882,0,0,0,1.31,3.565,2.292,2.292,0,0,1-.585,1.576,2.077,2.077,0,0,1-1.626.663Zm-99.609-.413a7.405,7.405,0,0,1-1.464.913,1.227,1.227,0,0,1-1.179.047,1.677,1.677,0,0,1-.632-1.256,10.071,10.071,0,0,1,.208-3l2.165-34.006a8.729,8.729,0,0,1,.363-2.536,1.672,1.672,0,0,1,.77-1.076.911.911,0,0,1,.971.273,4.035,4.035,0,0,1,.925,1.505,3.347,3.347,0,0,1,1.58-1.045,20.056,20.056,0,0,1,2.574-.8,25.5,25.5,0,0,1,2.775-.523,17.257,17.257,0,0,1,2.234-.187,12.242,12.242,0,0,1,5.9,2.793,7.192,7.192,0,0,1,2.235,4.228,9.9,9.9,0,0,1-.7,4.954,18.785,18.785,0,0,1-2.936,4.985,23.748,23.748,0,0,1-4.516,4.275,20.447,20.447,0,0,1-5.348,2.855,7.694,7.694,0,0,0,.447.85c.332.593.809,1.35,1.426,2.286s1.349,1.966,2.189,3.1a40.917,40.917,0,0,0,2.758,3.339,30.221,30.221,0,0,0,3.09,2.925,11.432,11.432,0,0,0,3.229,1.9,5.756,5.756,0,0,0,3.182.273,5.17,5.17,0,0,0,2.913-1.966,6.632,6.632,0,0,1,.046,4.135,2.979,2.979,0,0,1-2.212,1.786,7.979,7.979,0,0,1-3.861-.32,20.552,20.552,0,0,1-4.855-2.215c-2.5-2.84-4.562-5.157-6.188-6.975s-2.936-3.191-3.93-4.135a9.821,9.821,0,0,0-2.165-1.717c-.455-.195-.748-.093-.879.32a5.894,5.894,0,0,0-.139,1.989c.046.913.077,2,.092,3.246s-.038,2.629-.162,4.135a21.37,21.37,0,0,1-.9,4.642Zm15.9-33.874a3.918,3.918,0,0,0-.948-2.629,4.768,4.768,0,0,0-2.258-1.365,8.212,8.212,0,0,0-2.982-.257,10.742,10.742,0,0,0-3.067.71,8.363,8.363,0,0,0-2.512,1.514,3.991,3.991,0,0,0-1.326,2.122l-.408,13.988a10.57,10.57,0,0,0,2.728-1.1,23.552,23.552,0,0,0,3.052-1.989,27.653,27.653,0,0,0,2.959-2.582,25.757,25.757,0,0,0,2.5-2.879,14.714,14.714,0,0,0,1.711-2.9A5.5,5.5,0,0,0,104.47-917.117Zm39.818,14.542c-.093-.491-.239-.725-.447-.71a1.037,1.037,0,0,0-.678.5,9.543,9.543,0,0,0-.794,1.279c-.286.538-.547,1.092-.786,1.67s-.455,1.124-.632,1.622a11.775,11.775,0,0,0-.362,1.123c.478-.429.948-.842,1.395-1.24a10.543,10.543,0,0,0,1.2-1.209,4.716,4.716,0,0,0,.809-1.35A4.53,4.53,0,0,0,144.288-902.575Zm44.7-11.2a2.5,2.5,0,0,1,.5-1.506,1.612,1.612,0,0,1,1.394-.687c.632,0,1.01.172,1.133.523a4.391,4.391,0,0,1,.177,1.35,4.988,4.988,0,0,1-.085.757,3.118,3.118,0,0,1-.316.889,2.348,2.348,0,0,1-.57.687.956.956,0,0,1-.878.133,1.436,1.436,0,0,1-1.125-.843,3.667,3.667,0,0,1-.231-1.3" transform="translate(-76.252 992.951)" fill-rule="evenodd"/>
  <path id="path34" d="M372.966-876.408c-1.418.913-2.5,1.3-3.275,1.17a2.256,2.256,0,0,1-.6-.189,11.788,11.788,0,0,1-1.3,1.008,13.258,13.258,0,0,1-3.907,1.826,12.216,12.216,0,0,1-4.046.461,8.865,8.865,0,0,1-3.652-.983,7.616,7.616,0,0,1-2.759-2.489,8.489,8.489,0,0,1-1.326-4.049,1.736,1.736,0,0,1-1.38-.2,1.08,1.08,0,0,1-.362-.889,3.038,3.038,0,0,1,.385-1.24,8.259,8.259,0,0,1,.833-1.28,5.351,5.351,0,0,1,.97-.959,1.169,1.169,0,0,1,.771-.32,27.651,27.651,0,0,0,1.78-3.908q.8-2.119,1.741-4.088a14.051,14.051,0,0,1,2.327-3.472,6.711,6.711,0,0,1,3.537-2.013,2.169,2.169,0,0,1,1.449.452,2.752,2.752,0,0,1,.809,1.17,5.7,5.7,0,0,1,.362,1.53,13.575,13.575,0,0,1,.092,1.506,8.384,8.384,0,0,1-.724,3.635,9.653,9.653,0,0,1-1.8,2.653,16.769,16.769,0,0,1-2.327,2.013c-.824.593-1.6,1.17-2.327,1.74a9.935,9.935,0,0,0-1.8,1.8,3.651,3.651,0,0,0-.724,2.24,4.791,4.791,0,0,0,2.735,2.746,7.782,7.782,0,0,0,3.746.273,15.167,15.167,0,0,0,4.046-1.28,39.276,39.276,0,0,0,3.606-1.919,1.8,1.8,0,0,1,.3.023,6.23,6.23,0,0,1,1.6-.662,7.231,7.231,0,0,0,2.774-1.927,13.143,13.143,0,0,0,1.988-2.926,26.857,26.857,0,0,0,1.464-3.471c.424-1.218.809-2.387,1.156-3.519s.7-2.161,1.064-3.1a7.181,7.181,0,0,1,1.264-2.247,22.589,22.589,0,0,1,2.211,2.972,35.182,35.182,0,0,1,2.1,3.885,33.64,33.64,0,0,1,1.649,4.369,22.267,22.267,0,0,1,.879,4.384,13.245,13.245,0,0,1-.177,3.979,6.4,6.4,0,0,1-1.557,3.113,6.68,6.68,0,0,1-3.252,1.8,13.38,13.38,0,0,1-5.24.094,4.826,4.826,0,0,1-3.09-1.1,6.573,6.573,0,0,1-2.011-2.605Zm-11.112-16.04c-.093-.491-.239-.725-.447-.71a1.038,1.038,0,0,0-.678.5,9.548,9.548,0,0,0-.793,1.279c-.285.538-.547,1.092-.786,1.669s-.455,1.124-.632,1.623a11.7,11.7,0,0,0-.362,1.123c.478-.429.948-.842,1.395-1.24a10.5,10.5,0,0,0,1.2-1.209,4.71,4.71,0,0,0,.81-1.35,4.538,4.538,0,0,0,.293-1.685Zm14.68,14.167a9.325,9.325,0,0,0,3.3,1.67,5.143,5.143,0,0,0,2.8,0,3.652,3.652,0,0,0,1.942-1.443,4.69,4.69,0,0,0,.748-2.629,9.853,9.853,0,0,0-.771-3.612,17.937,17.937,0,0,0-2.6-4.361,3.9,3.9,0,0,0-.77.936c-.331.5-.694,1.1-1.1,1.787s-.824,1.42-1.241,2.216-.809,1.552-1.156,2.286-.625,1.372-.832,1.942A4.141,4.141,0,0,0,376.534-878.281Zm-.393-20.478c-.609,0-.986-.125-1.156-.367a1.991,1.991,0,0,1-.247-1.1c.239-.359.617-.9,1.125-1.6s1.094-1.42,1.742-2.169a28.176,28.176,0,0,1,1.988-2.075,6.976,6.976,0,0,1,1.942-1.373,1.712,1.712,0,0,1,1.6-.024q.671.387.9,1.99a2.961,2.961,0,0,1-.832,1.942,14.056,14.056,0,0,1-2.173,2.075,19.842,19.842,0,0,1-2.659,1.763,9.235,9.235,0,0,1-2.235.937" transform="translate(-232.948 982.825)" fill-rule="evenodd"/>
  <path id="path36" d="M483.589-876.229a5.563,5.563,0,0,1-1.788-1.849,7.409,7.409,0,0,1-.828-2.261l-.113.177a9.177,9.177,0,0,1-2.127,2.263,4.813,4.813,0,0,1-2.551,1.076,1.955,1.955,0,0,1-1.395-.507,3.631,3.631,0,0,1-.863-1.232,6.088,6.088,0,0,1-.432-1.576,13.037,13.037,0,0,1-.108-1.576,19.548,19.548,0,0,1,.224-3.043c.154-.928.316-1.849.5-2.762s.339-1.841.493-2.769a18.662,18.662,0,0,0,.224-3.043,1.54,1.54,0,0,0-1.8-.616,5.6,5.6,0,0,0-2.188,1.576,18.61,18.61,0,0,0-2.281,3.136,37.116,37.116,0,0,0-2.057,3.979,31.167,31.167,0,0,0-1.51,4.135,14.983,14.983,0,0,0-.632,3.612,4.148,4.148,0,0,1-.585.866,1.121,1.121,0,0,1-.863.414,1.18,1.18,0,0,1-1.487-.531,5.42,5.42,0,0,1-.516-2.371l0-.077a7.157,7.157,0,0,1-1.646,1.31,12.16,12.16,0,0,1-3.337,1.35,9.382,9.382,0,0,1-3.167.32,4.275,4.275,0,0,1-2.527-.46,5.233,5.233,0,0,1-1.8-1.646,8.132,8.132,0,0,1-1.11-2.442,15.4,15.4,0,0,1-.493-2.88,15.41,15.41,0,0,1,.047-2.926,13.726,13.726,0,0,1,.516-2.582l4.247-23.225c.123-.671.37-1.076.747-1.209a1.173,1.173,0,0,1,1.125.18,2.725,2.725,0,0,1,.925,1.326,4.245,4.245,0,0,1,.185,2.169L450.946-891a26.419,26.419,0,0,0-.386,5.165,8.045,8.045,0,0,0,.655,3.019,3.468,3.468,0,0,0,1.357,1.552,10.764,10.764,0,0,0,1.718.78,5.76,5.76,0,0,0,1.827-.3c.585-.2,1.156-.422,1.718-.664s1.11-.468,1.665-.663a5.357,5.357,0,0,1,1.507-.29q.023-.264.05-.537c.154-1.474.324-3.058.524-4.751s.385-3.448.586-5.281.324-3.612.385-5.344a5.342,5.342,0,0,0,.739-.071,5.041,5.041,0,0,1,.971-.047,3.05,3.05,0,0,1,.886.164.7.7,0,0,1,.47.547v7.356q.809-1.415,1.873-2.949a27.853,27.853,0,0,1,2.3-2.879,14.755,14.755,0,0,1,2.644-2.286,6.581,6.581,0,0,1,2.936-1.116,2.5,2.5,0,0,1,1.58.453,2.976,2.976,0,0,1,.9,1.193,5.5,5.5,0,0,1,.409,1.623c.054.593.085,1.162.085,1.708q-.9,4.26-1.6,7.474a21.067,21.067,0,0,0-.632,4.783c.047,1.03.455,1.4,1.226,1.092a13.665,13.665,0,0,0,3.585-3.167q.058-.571.137-1.147c.116-.9.231-1.786.339-2.652a21.879,21.879,0,0,0,.155-2.5,2.586,2.586,0,0,1-.586-1.755,3.993,3.993,0,0,1,.455-1.716,4.529,4.529,0,0,1,1.079-1.35,2.686,2.686,0,0,1,1.356-.663,1.462,1.462,0,0,1,1.218.39,2.689,2.689,0,0,1,.678,1.763,19.433,19.433,0,0,1-.431,3.971q-.427,2.06-.693,4.1a19.059,19.059,0,0,0-.139,3.955,6.886,6.886,0,0,0,1.31,3.565,2.293,2.293,0,0,1-.585,1.576,2.078,2.078,0,0,1-1.626.663Zm.809-30.948a2.5,2.5,0,0,1,.5-1.506,1.613,1.613,0,0,1,1.4-.687c.632,0,1.01.172,1.133.523a4.394,4.394,0,0,1,.177,1.35,4.991,4.991,0,0,1-.084.757,3.149,3.149,0,0,1-.316.889,2.342,2.342,0,0,1-.57.687.956.956,0,0,1-.879.133,1.435,1.435,0,0,1-1.125-.843,3.674,3.674,0,0,1-.231-1.3" transform="translate(-289.928 986.351)" fill-rule="evenodd"/>
  <path id="path38" d="M553.8-868.917a18.18,18.18,0,0,1,.455-3.753,16.805,16.805,0,0,1,1.4-3.994,10.308,10.308,0,0,1,2.435-3.207,5.312,5.312,0,0,1,3.614-1.3,3.2,3.2,0,0,1,1.58-.062,7.559,7.559,0,0,1,1.78.546,6.315,6.315,0,0,1,1.58.983,3.438,3.438,0,0,1,.994,1.279,1.752,1.752,0,0,1,0,1.42,3.033,3.033,0,0,1-1.418,1.365,1.528,1.528,0,0,1-.948-.3,6.294,6.294,0,0,1-.794-.663,7.347,7.347,0,0,0-.809-.663,1.759,1.759,0,0,0-1.018-.3,4.292,4.292,0,0,0-2.844,1.233,8.156,8.156,0,0,0-1.857,2.816,11.853,11.853,0,0,0-.809,3.612,11,11,0,0,0,.316,3.636,7.292,7.292,0,0,0,1.487,2.9,4.038,4.038,0,0,0,2.759,1.388,7.616,7.616,0,0,0,2.62-.475,17.8,17.8,0,0,0,2.574-1.194c.84-.468,1.641-.967,2.389-1.482s1.448-.975,2.081-1.373a2.683,2.683,0,0,0,.046.366c.023.187.047.375.062.57s.031.4.046.6.023.312.023.336a10.107,10.107,0,0,1-2.574,4.228,9.122,9.122,0,0,1-3.652,2.177,8.344,8.344,0,0,1-4.069.179,8.634,8.634,0,0,1-3.768-1.755,9.686,9.686,0,0,1-2.736-3.635,12.519,12.519,0,0,1-.948-5.485" transform="translate(-353.186 967.384)" fill-rule="evenodd"/>
  <path id="path40" d="M616.8-866.719a13.957,13.957,0,0,1,.292-2.629,25.169,25.169,0,0,1,.84-3.089,20.6,20.6,0,0,1,1.356-3.128,14.922,14.922,0,0,1,1.849-2.746,9.019,9.019,0,0,1,2.3-1.943,5.423,5.423,0,0,1,2.751-.733,8.116,8.116,0,0,1,2.735.6,16.3,16.3,0,0,1,2.659,1.342,24.076,24.076,0,0,1,2.466,1.763c.778.64,1.487,1.248,2.119,1.825q-.5,4.845-.586,7.794a27.842,27.842,0,0,0,.131,4.486,2.847,2.847,0,0,0,.771,1.9,1.459,1.459,0,0,0,1.379.047,9.366,9.366,0,0,0,1.919-1.1c.725-.515,1.518-1.038,2.389-1.553a4.478,4.478,0,0,1,.771.094.514.514,0,0,1,.493.546,11.2,11.2,0,0,1-2.212,4.181,6.3,6.3,0,0,1-2.821,1.919,4.3,4.3,0,0,1-2.866-.117,4.988,4.988,0,0,1-2.327-1.919,7.884,7.884,0,0,1-1.194-3.472,11.95,11.95,0,0,1,.539-4.845,13.346,13.346,0,0,1-2.3,4.065,17.81,17.81,0,0,1-3.475,3.339,12.659,12.659,0,0,1-3.861,1.942,5.169,5.169,0,0,1-3.475-.047,4.124,4.124,0,0,1-2.155-2.278,3.338,3.338,0,0,1-.35.312,2.916,2.916,0,0,1-.948.531q-3.791.773-6.481,1.3t-4.493.866c-1.2.226-2.165.413-2.89.546s-1.272.234-1.642.273-.639.079-.793.094-.255.023-.316.023c-.031,0-.185-.016-.477-.046a2.016,2.016,0,0,1-.948-.43,3.357,3.357,0,0,1-.925-1.279,6.51,6.51,0,0,1-.4-2.582l11.513-14.4-13.455,3.518c0-.492.008-.967.023-1.443a4.957,4.957,0,0,1,.2-1.3,2.629,2.629,0,0,1,.586-1.022,2.227,2.227,0,0,1,1.133-.624c2.342-.64,4.739-1.264,7.174-1.873a46.947,46.947,0,0,1,7.313-1.232,3.58,3.58,0,0,1,.971,2.722,7.776,7.776,0,0,1-.971,3.105,18.278,18.278,0,0,1-2.274,3.292c-.956,1.116-1.927,2.208-2.913,3.292s-1.949,2.13-2.866,3.152a21.493,21.493,0,0,0-2.2,2.816,21.186,21.186,0,0,0,4-.39c1.341-.265,2.69-.531,4.039-.8s2.727-.491,4.115-.663a17.077,17.077,0,0,1,3.688-.034,18.415,18.415,0,0,1,.1-3.96Zm3.028.679c.031,1.833.347,3.027.948,3.589a2.023,2.023,0,0,0,2.189.413,8.077,8.077,0,0,0,2.8-1.825A21.257,21.257,0,0,0,628.54-867a20.353,20.353,0,0,0,2.073-3.495,7.225,7.225,0,0,0,.817-2.9,3.02,3.02,0,0,0-.362-1.506,3.108,3.108,0,0,0-.948-1.053,4.214,4.214,0,0,0-1.333-.616,5.36,5.36,0,0,0-1.464-.21,5.593,5.593,0,0,0-3.367,1.03,8.178,8.178,0,0,0-2.327,2.606,12.962,12.962,0,0,0-1.348,3.48,15.25,15.25,0,0,0-.455,3.627" transform="translate(-377.353 967.199)" fill-rule="evenodd"/>
</svg>
