<svg id="Icons_Places" data-name="Icons/Places" xmlns="http://www.w3.org/2000/svg" xmlns:xlink="http://www.w3.org/1999/xlink" width="14" height="20" viewBox="0 0 14 20">
  <defs>
    <clipPath id="clip-path">
      <path id="ic_Places" d="M7,20H7A46.278,46.278,0,0,1,3.5,15.45C1.9,13.078,0,9.686,0,7A6.956,6.956,0,0,1,7,0a6.957,6.957,0,0,1,7,7c0,2.686-1.9,6.078-3.5,8.45A46.278,46.278,0,0,1,7,20ZM7,4.444A2.707,2.707,0,0,0,4.307,7.222a2.694,2.694,0,1,0,5.385,0A2.707,2.707,0,0,0,7,4.444Z" fill="#d0d0d0"/>
    </clipPath>
  </defs>
  <path id="ic_Places-2" data-name="ic_Places" d="M7,20H7A46.278,46.278,0,0,1,3.5,15.45C1.9,13.078,0,9.686,0,7A6.956,6.956,0,0,1,7,0a6.957,6.957,0,0,1,7,7c0,2.686-1.9,6.078-3.5,8.45A46.278,46.278,0,0,1,7,20ZM7,4.444A2.707,2.707,0,0,0,4.307,7.222a2.694,2.694,0,1,0,5.385,0A2.707,2.707,0,0,0,7,4.444Z" transform="translate(0)" fill="#d0d0d0"/>
</svg>
