<svg xmlns="http://www.w3.org/2000/svg" width="34.759" height="11.724" viewBox="0 0 34.759 11.724">
  <g id="Przelewy24_logo" transform="translate(-12.7 -16.586)">
    <path id="Path_36129" data-name="Path 36129" d="M371.9,384.7l2.869,0-.1.653-2.4,2.291,2.014,0-.117.7-2.966,0,.125-.728,2.3-2.2h-1.836Z" transform="translate(-351.923 -361.361)" fill="#d13239" fill-rule="evenodd"/>
    <path id="Path_36130" data-name="Path 36130" d="M16.842,308.392a.718.718,0,0,0-.251-.158,1.829,1.829,0,0,0-.334-.09,2.825,2.825,0,0,0-.382-.04c-.092,0-.15,0-.15,0H13.537l-.837,5.052h.782l.308-1.871,1.515.007a2.32,2.32,0,0,0,1.009-.2,1.188,1.188,0,0,0,.53-.727s.046-.187.084-.415c.042-.251.084-.552.106-.712.009-.07.015-.114.015-.114a.7.7,0,0,0,.011-.132.9.9,0,0,0-.1-.442A.725.725,0,0,0,16.842,308.392Zm-.6.892c0,.009-.07.415-.161.9a.4.4,0,0,1-.338.317,2.6,2.6,0,0,1-.556.046l-1.266,0,.279-1.679,1.147,0s.077,0,.185,0a3.744,3.744,0,0,1,.42.026.424.424,0,0,1,.237.075.311.311,0,0,1,.059.165A.688.688,0,0,1,16.241,309.283Z" transform="translate(0 -286.166)" fill="#d13239" fill-rule="evenodd"/>
    <path id="Path_36131" data-name="Path 36131" d="M732.944,308.1h.752l-.842,5.052-.754,0Z" transform="translate(-706.202 -286.166)" fill="#d13239" fill-rule="evenodd"/>
    <path id="Path_36132" data-name="Path 36132" d="M996.9,384.605l.721,0,.255,2.565,1.11-2.568.89,0,.262,2.576,1.108-2.574h.748l-1.589,3.642h-.888l-.257-2.55-1.121,2.55-.873,0Z" transform="translate(-966.145 -361.263)" fill="#d13239" fill-rule="evenodd"/>
    <g id="Group_34825" data-name="Group 34825" transform="translate(22.554 23.292)">
      <path id="Path_36133" data-name="Path 36133" d="M552.662,382.251a3.291,3.291,0,0,0-.886-.079,2.747,2.747,0,0,0-.549.042,1.464,1.464,0,0,0-.835.451,2.9,2.9,0,0,0-.393,1.192,5.634,5.634,0,0,0-.127,1.207.806.806,0,0,0,.488.712,1.808,1.808,0,0,0,.631.125,4.169,4.169,0,0,0,1.068-.061,1.308,1.308,0,0,0,.7-.431,1.814,1.814,0,0,0,.185-.3,1.458,1.458,0,0,0,.1-.3l.048-.2-.78,0s-.042.516-.464.563a3.956,3.956,0,0,1-.728.026c-.081,0-.532.016-.5-.361a.131.131,0,0,1,0-.024,1.953,1.953,0,0,1,.068-.541l2.449-.007.1-.605C553.375,382.979,553.289,382.457,552.662,382.251Zm-.163,1.328-1.679,0,.066-.266a.668.668,0,0,1,.174-.3.772.772,0,0,1,.405-.117,3.069,3.069,0,0,1,.815.022.278.278,0,0,1,.222.161A1.271,1.271,0,0,1,552.5,383.579Z" transform="translate(-549.863 -382.172)" fill="#d13239"/>
      <path id="Path_36134" data-name="Path 36134" d="M591.874,526.9c0,.005,0,.011,0,.017C591.871,526.943,591.874,526.9,591.874,526.9Z" transform="translate(-591.101 -524.242)" fill="#d13239"/>
    </g>
    <g id="Group_34826" data-name="Group 34826" transform="translate(27.176 23.294)">
      <path id="Path_36135" data-name="Path 36135" d="M843.7,527c0,.005,0,.011,0,.016C843.7,527.043,843.7,527,843.7,527Z" transform="translate(-842.931 -524.342)" fill="#d13239"/>
      <path id="Path_36136" data-name="Path 36136" d="M804.562,382.351a3.29,3.29,0,0,0-.886-.079,2.747,2.747,0,0,0-.549.042,1.465,1.465,0,0,0-.835.451,2.9,2.9,0,0,0-.393,1.192,5.634,5.634,0,0,0-.127,1.207.806.806,0,0,0,.488.712,1.808,1.808,0,0,0,.631.125,4.17,4.17,0,0,0,1.068-.061,1.309,1.309,0,0,0,.7-.431,1.812,1.812,0,0,0,.185-.3,1.462,1.462,0,0,0,.1-.3l.048-.2-.78,0s-.042.516-.464.563a4.244,4.244,0,0,1-.728.028c-.081,0-.532.015-.5-.361a.132.132,0,0,1,0-.024,1.949,1.949,0,0,1,.068-.541l2.449-.007.1-.605C805.275,383.079,805.189,382.555,804.562,382.351Zm-.171,1.326-1.679,0,.066-.266a.668.668,0,0,1,.174-.3.768.768,0,0,1,.406-.117,3.069,3.069,0,0,1,.814.022.278.278,0,0,1,.222.161A1.273,1.273,0,0,1,804.391,383.677Z" transform="translate(-801.763 -382.272)" fill="#d13239"/>
    </g>
    <path id="Path_36137" data-name="Path 36137" d="M1264.374,384.8l.482,2.664,1.363-2.666.767.007-1.965,3.807a4.018,4.018,0,0,1-.576.864,1,1,0,0,1-.536.272,1.229,1.229,0,0,1-.426,0l-.183-.033.114-.681a1.105,1.105,0,0,0,.484-.015c.182-.072.327-.38.327-.38l.092-.154-.71-3.687.767,0Z" transform="translate(-1227.658 -361.459)" fill="#d13239" fill-rule="evenodd"/>
    <path id="Path_36138" data-name="Path 36138" d="M1450.147,306.581l.791,0,.048-.306s.084-.554.273-.66a.9.9,0,0,1,.27-.086,3.537,3.537,0,0,1,.684-.033,7.646,7.646,0,0,1,.787.053.278.278,0,0,1,.25.361l-.066.482a1.171,1.171,0,0,1-.106.35.689.689,0,0,1-.363.235c-.26.084-1.152.312-1.152.312l-.7.2a1.669,1.669,0,0,0-.671.391,1.606,1.606,0,0,0-.371.728c-.033.158-.218,1.249-.218,1.249l3.783,0,.127-.756-2.992,0,.053-.308s.035-.317.163-.422a.65.65,0,0,1,.3-.161c.143-.051.631-.182.631-.182l1.128-.308a1.792,1.792,0,0,0,.859-.5,2.754,2.754,0,0,0,.336-.98,3.984,3.984,0,0,0,.015-.822.879.879,0,0,0-.46-.532,2.444,2.444,0,0,0-1.141-.15,3.854,3.854,0,0,0-1.363.169,1.091,1.091,0,0,0-.671.684,4.717,4.717,0,0,0-.218.978Z" transform="translate(-1410.54 -282.877)" fill="#b3b2b1" fill-rule="evenodd"/>
    <path id="Path_36139" data-name="Path 36139" d="M1682.166,311.177l.53-3.177h-.939l-2.924,3.141-.132.8h2.557l-.187,1.115.785,0,.185-1.117.725,0,.13-.761Zm-.781,0-1.653,0,2.013-2.145Z" transform="translate(-1635.437 -286.068)" fill="#b3b2b1" fill-rule="evenodd"/>
    <path id="Path_36140" data-name="Path 36140" d="M328.9,219.677h2.409s.539-.437.923-.717,1.081-.723,1.081-.723l-1.361-.637s-1.15.712-1.638,1.048c-.473.31-1.413,1.029-1.413,1.029Z" transform="translate(-310.399 -197.327)" fill="#b3b2b1" fill-rule="evenodd"/>
    <path id="Path_36141" data-name="Path 36141" d="M551.317,87.522l-1.117-.752a21.123,21.123,0,0,1,2.356-1.11c1.343-.536,2.06-.759,2.06-.759l.227,1.066s-1.293.433-2.034.783a12.962,12.962,0,0,0-1.491.772Z" transform="translate(-527.639 -67.061)" fill="#b3b2b1" fill-rule="evenodd"/>
    <path id="Path_36142" data-name="Path 36142" d="M837.895,21.14l-.195-1.092s1.38-.367,2.642-.6,2.939-.347,2.939-.347l-.554,1.686a12.146,12.146,0,0,0-2.856-.013,16.028,16.028,0,0,0-1.976.367Z" transform="translate(-809.865 -2.468)" fill="#b3b2b1" fill-rule="evenodd"/>
    <path id="Path_36143" data-name="Path 36143" d="M1159.5,18.461l.932-1.873a25.766,25.766,0,0,1,3.8.233,26.112,26.112,0,0,1,3.337.708l-4.465,2.335a11.119,11.119,0,0,0-2.339-1.066c-.734-.216-1.268-.338-1.268-.338Z" transform="translate(-1125.762)" fill="#b3b2b1" fill-rule="evenodd"/>
    <path id="Path_36144" data-name="Path 36144" d="M1399.7,107.557l.981.745h8.066a1.6,1.6,0,0,0-.231-.631,4.1,4.1,0,0,0-.633-.732,7.007,7.007,0,0,0-.743-.563,11.709,11.709,0,0,0-1.849-.976l-5.592,2.157Z" transform="translate(-1361.555 -87.185)" fill="#b3b2b1" fill-rule="evenodd"/>
    <path id="Path_36145" data-name="Path 36145" d="M237.834,384.7a1.767,1.767,0,0,0-.833.253l.042-.253h-.8l-.642,3.627h.8l.356-2.009a1.027,1.027,0,0,1,.972-.912l.415,0,.125-.7Z" transform="translate(-218.811 -361.361)" fill="#d13239"/>
  </g>
</svg>
