<svg id="Group_848" data-name="Group 848" xmlns="http://www.w3.org/2000/svg" width="16.799" height="15.977" viewBox="0 0 16.799 15.977">
  <path id="Path_2173" data-name="Path 2173" d="M463.645,207.583l-5.712.969,8.4,1.886Z" transform="translate(-457.932 -202.449)" fill="#444251"/>
  <path id="Path_2174" data-name="Path 2174" d="M604.348,228.117l4.052-4.142-8.4,1.886Z" transform="translate(-591.601 -217.873)" fill="#444251"/>
  <path id="Path_2175" data-name="Path 2175" d="M602.687,125.89,600,120.757v7.988Z" transform="translate(-591.601 -120.757)" fill="#444251"/>
  <path id="Path_2176" data-name="Path 2176" d="M513.041,258.128l-.844,5.732,5.191-7.988Z" transform="translate(-508.989 -247.883)" fill="#3d3b3b"/>
  <path id="Path_2177" data-name="Path 2177" d="M600,261.286l5.191,2.574L600,255.871Z" transform="translate(-591.601 -247.883)" fill="#444251"/>
  <path id="Path_2178" data-name="Path 2178" d="M512.2,263.86l5.191-2.574v-5.415Z" transform="translate(-508.989 -247.883)" fill="#444251"/>
  <path id="Path_2179" data-name="Path 2179" d="M457.932,223.975l4.052,4.142,4.348-2.256Z" transform="translate(-457.932 -217.873)" fill="#444251"/>
  <path id="Path_2180" data-name="Path 2180" d="M557.239,120.757l-2.687,5.133,2.687,2.855Z" transform="translate(-548.84 -120.757)" fill="#444251"/>
  <path id="Path_2181" data-name="Path 2181" d="M608.4,208.552l-5.712-.969L600,210.438Z" transform="translate(-591.601 -202.449)" fill="#444251"/>
  <path id="Path_2182" data-name="Path 2182" d="M600,255.871l5.191,7.988-.844-5.732Z" transform="translate(-591.601 -247.883)" fill="#444251"/>
</svg>
