<svg id="Group_34420" data-name="Group 34420" xmlns="http://www.w3.org/2000/svg" width="26.391" height="25.099" viewBox="0 0 26.391 25.099">
  <path id="Path_2173" data-name="Path 2173" d="M466.906,207.583l-8.974,1.523,13.2,2.963Z" transform="translate(-457.932 -199.518)" fill="#d0d0d0"/>
  <path id="Path_2174" data-name="Path 2174" d="M606.83,230.482l6.365-6.507L600,226.938Z" transform="translate(-586.805 -214.388)" fill="#d0d0d0"/>
  <path id="Path_2175" data-name="Path 2175" d="M604.221,128.822,600,120.757v12.55Z" transform="translate(-586.805 -120.757)" fill="#d0d0d0"/>
  <path id="Path_2176" data-name="Path 2176" d="M513.523,259.416l-1.325,9.006,8.155-12.55Z" transform="translate(-507.157 -243.322)" fill="#d0d0d0"/>
  <path id="Path_2177" data-name="Path 2177" d="M600,264.378l8.155,4.043L600,255.872Z" transform="translate(-586.805 -243.322)" fill="#d0d0d0"/>
  <path id="Path_2178" data-name="Path 2178" d="M512.2,268.421l8.155-4.043v-8.507Z" transform="translate(-507.157 -243.322)" fill="#d0d0d0"/>
  <path id="Path_2179" data-name="Path 2179" d="M457.932,223.975l6.365,6.507,6.83-3.544Z" transform="translate(-457.932 -214.388)" fill="#d0d0d0"/>
  <path id="Path_2180" data-name="Path 2180" d="M558.774,120.757l-4.221,8.065,4.221,4.485Z" transform="translate(-545.578 -120.757)" fill="#d0d0d0"/>
  <path id="Path_2181" data-name="Path 2181" d="M613.2,209.105l-8.974-1.523L600,212.068Z" transform="translate(-586.805 -199.518)" fill="#d0d0d0"/>
  <path id="Path_2182" data-name="Path 2182" d="M600,255.872l8.155,12.55-1.325-9.006Z" transform="translate(-586.805 -243.322)" fill="#d0d0d0"/>
</svg>
