<svg id="Group_1133" data-name="Group 1133" xmlns="http://www.w3.org/2000/svg" width="31.606" height="20.748" viewBox="0 0 31.606 20.748">
  <g id="Group_1075" data-name="Group 1075" transform="translate(0.051 8.587)">
    <path id="Path_2252" data-name="Path 2252" d="M2739.406,2214.334h-5.042a.373.373,0,0,1-.328-.194l-.047-.086a.133.133,0,0,1,.116-.2h5.6A1.744,1.744,0,0,0,2739.406,2214.334Z" transform="translate(-2733.972 -2213.858)" fill="#ffc305"/>
  </g>
  <g id="Group_1076" data-name="Group 1076" transform="translate(0.382 3.155)">
    <path id="Path_2253" data-name="Path 2253" d="M2602.818,1785.128h-7l-.128-5.431h7Z" transform="translate(-2595.689 -1779.697)" fill="#ffc305"/>
  </g>
  <g id="Group_1077" data-name="Group 1077" transform="translate(0.916 0.051)">
    <path id="Path_2254" data-name="Path 2254" d="M2801.4,1534.633l-.225-3.1h-3.847l.225,3.1" transform="translate(-2797.323 -1531.529)" fill="#ffc305"/>
  </g>
  <g id="Group_1078" data-name="Group 1078" transform="translate(4.239 13.712)">
    <ellipse id="Ellipse_42" data-name="Ellipse 42" cx="3.493" cy="3.493" rx="3.493" ry="3.493" fill="#231f20"/>
  </g>
  <g id="Group_1079" data-name="Group 1079" transform="translate(4.189 13.661)">
    <path id="Path_2255" data-name="Path 2255" d="M2298.259,2626.6a3.544,3.544,0,1,0-2.506-1.038A3.52,3.52,0,0,0,2298.259,2626.6Zm0-6.985a3.442,3.442,0,1,1-3.442,3.442A3.446,3.446,0,0,1,2298.259,2619.613Z" transform="translate(-2294.716 -2619.511)" fill="#231f20"/>
  </g>
  <g id="Group_1080" data-name="Group 1080" transform="translate(5.642 15.115)">
    <path id="Path_2256" data-name="Path 2256" d="M2413,2735.71a2.09,2.09,0,1,1-2.09,2.09A2.089,2.089,0,0,1,2413,2735.71Zm-.4.738,0,0a.216.216,0,0,0-.3-.133,1.65,1.65,0,0,0-.505.372.216.216,0,0,0,.036.326l0,0a.214.214,0,0,0,.278-.031,1.215,1.215,0,0,1,.376-.276A.215.215,0,0,0,2412.6,2736.448Zm-.44,1.352a.842.842,0,0,0,.77.839.7.7,0,0,0,.072,0,.842.842,0,1,0-.842-.842Zm2.03-1.14a1.666,1.666,0,0,0-.463-.339.216.216,0,0,0-.3.129v0a.216.216,0,0,0,.111.258,1.221,1.221,0,0,1,.34.25.217.217,0,0,0,.28.027l0,0A.216.216,0,0,0,2414.191,2736.66Zm-.06,1.987,0,0a.216.216,0,0,0,.32-.069,1.663,1.663,0,0,0,.074-.158,1.638,1.638,0,0,0,.1-.375.216.216,0,0,0-.213-.248h0a.216.216,0,0,0-.213.184,1.193,1.193,0,0,1-.129.388.211.211,0,0,0-.025.091A.214.214,0,0,0,2414.131,2738.646Zm-1.364.783a1.677,1.677,0,0,0,.542-.012.216.216,0,0,0,.165-.284l0,0a.214.214,0,0,0-.242-.14,1.256,1.256,0,0,1-.227.021,1.188,1.188,0,0,1-.177-.013.215.215,0,0,0-.235.151v0A.216.216,0,0,0,2412.767,2739.43Zm-1.219-.858a.216.216,0,0,0,.319.071l0,0a.217.217,0,0,0,.061-.275,1.2,1.2,0,0,1-.126-.38.216.216,0,0,0-.213-.185h0a.216.216,0,0,0-.213.247A1.62,1.62,0,0,0,2411.548,2738.571Z" transform="translate(-2410.913 -2735.71)" fill="#deebfc"/>
  </g>
  <g id="Group_1081" data-name="Group 1081" transform="translate(6.284 17.814)">
    <path id="Path_2257" data-name="Path 2257" d="M2418.595,2952.191a3.488,3.488,0,0,1,1.2-.525q.229-.056.466-.094c.215-.035.432-.061.649-.082a.212.212,0,0,0,.086.183l0,0a.215.215,0,0,0,.32-.07,1.568,1.568,0,0,0,.074-.157l.028,0a2.059,2.059,0,0,1,.442,0,2.09,2.09,0,0,1-3.443.885A1.39,1.39,0,0,1,2418.595,2952.191Zm1.041.266a1.658,1.658,0,0,0,.542-.012.216.216,0,0,0,.165-.284v0a.215.215,0,0,0-.243-.14,1.2,1.2,0,0,1-.4.008.215.215,0,0,0-.235.151v0A.216.216,0,0,0,2419.636,2952.457Z" transform="translate(-2418.424 -2951.436)" fill="#fff"/>
  </g>
  <g id="Group_1082" data-name="Group 1082" transform="translate(5.591 15.064)">
    <path id="Path_2258" data-name="Path 2258" d="M2408.995,2735.928a2.141,2.141,0,1,0-2.14-2.141A2.143,2.143,0,0,0,2408.995,2735.928Zm0-4.18a2.039,2.039,0,1,1-2.039,2.039A2.042,2.042,0,0,1,2408.995,2731.749Zm0,3.736a1.709,1.709,0,0,0,.316-.029.268.268,0,0,0,.183-.13.265.265,0,0,0,.02-.221v0a.267.267,0,0,0-.251-.178.243.243,0,0,0-.05,0,1.169,1.169,0,0,1-.387.008l-.038,0a.267.267,0,0,0-.253.189v0a.267.267,0,0,0,.219.342A1.694,1.694,0,0,0,2408.995,2735.485Zm.267-.46a.164.164,0,0,1,.155.11v0a.166.166,0,0,1-.012.137.168.168,0,0,1-.114.08,1.615,1.615,0,0,1-.526.011.165.165,0,0,1-.135-.211v0a.165.165,0,0,1,.156-.117l.023,0a1.275,1.275,0,0,0,.421-.009Zm.994-.293a.267.267,0,0,0,.235-.14,1.681,1.681,0,0,0,.183-.549.267.267,0,0,0-.264-.306h0a.266.266,0,0,0-.263.227,1.137,1.137,0,0,1-.124.371.265.265,0,0,0,.074.34l0,0A.266.266,0,0,0,2410.256,2734.732Zm.154-.893a.165.165,0,0,1,.163.189,1.559,1.559,0,0,1-.172.516.165.165,0,0,1-.244.053l0,0a.164.164,0,0,1-.046-.211,1.25,1.25,0,0,0,.135-.4.164.164,0,0,1,.163-.141Zm-2.679.885a.265.265,0,0,0,.159-.052l0,0a.265.265,0,0,0,.075-.339,1.142,1.142,0,0,1-.12-.365.266.266,0,0,0-.264-.228h0a.266.266,0,0,0-.263.306,1.677,1.677,0,0,0,.178.541A.265.265,0,0,0,2407.73,2734.724Zm-.146-.885a.165.165,0,0,1,.163.141,1.237,1.237,0,0,0,.131.4.165.165,0,0,1-.047.21l0,0a.162.162,0,0,1-.1.032.164.164,0,0,1-.145-.087,1.562,1.562,0,0,1-.168-.508.165.165,0,0,1,.163-.189Zm1.41.842a.893.893,0,1,0-.893-.893A.894.894,0,0,0,2408.995,2734.681Zm0-1.684a.791.791,0,1,1-.791.791A.792.792,0,0,1,2408.995,2733Zm-1.048.091a.264.264,0,0,0,.194-.085,1.164,1.164,0,0,1,.36-.265.267.267,0,0,0,.14-.316l0-.005a.267.267,0,0,0-.371-.163,1.693,1.693,0,0,0-.521.383.269.269,0,0,0-.07.214.265.265,0,0,0,.115.189l0,0A.265.265,0,0,0,2407.947,2733.087Zm.438-.759a.163.163,0,0,1,.158.118l0,0a.165.165,0,0,1-.087.195,1.26,1.26,0,0,0-.391.288.164.164,0,0,1-.212.023l0,0a.164.164,0,0,1-.071-.117.168.168,0,0,1,.044-.133,1.59,1.59,0,0,1,.49-.36A.164.164,0,0,1,2408.384,2732.329Zm1.639.737a.265.265,0,0,0,.154-.048l0,0a.263.263,0,0,0,.11-.191.266.266,0,0,0-.073-.211,1.708,1.708,0,0,0-.477-.349.267.267,0,0,0-.372.16v0a.265.265,0,0,0,.137.319,1.163,1.163,0,0,1,.326.239A.269.269,0,0,0,2410.024,2733.066Zm-.4-.729a.165.165,0,0,1,.073.017,1.611,1.611,0,0,1,.449.328.165.165,0,0,1-.023.249l0,0a.164.164,0,0,1-.213-.021,1.273,1.273,0,0,0-.354-.259.164.164,0,0,1-.085-.2v0A.164.164,0,0,1,2409.624,2732.337Z" transform="translate(-2406.854 -2731.647)" fill="#231f20"/>
  </g>
  <g id="Group_1083" data-name="Group 1083" transform="translate(23.382 13.712)">
    <ellipse id="Ellipse_43" data-name="Ellipse 43" cx="3.493" cy="3.493" rx="3.493" ry="3.493" transform="translate(0)" fill="#231f20"/>
  </g>
  <g id="Group_1084" data-name="Group 1084" transform="translate(23.331 13.661)">
    <path id="Path_2259" data-name="Path 2259" d="M768.06,2626.6a3.544,3.544,0,1,0-2.506-1.038A3.521,3.521,0,0,0,768.06,2626.6Zm0-6.985a3.442,3.442,0,1,1-3.442,3.442A3.446,3.446,0,0,1,768.06,2619.613Z" transform="translate(-764.517 -2619.511)" fill="#231f20"/>
  </g>
  <g id="Group_1085" data-name="Group 1085" transform="translate(24.785 15.115)">
    <path id="Path_2260" data-name="Path 2260" d="M880.933,2736.874a2.09,2.09,0,1,1-.216.926A2.09,2.09,0,0,1,880.933,2736.874Zm1.471-.426v0a.217.217,0,0,0-.3-.133,1.651,1.651,0,0,0-.505.372.216.216,0,0,0,.036.326l0,0a.215.215,0,0,0,.278-.031,1.215,1.215,0,0,1,.376-.276A.215.215,0,0,0,882.4,2736.448Zm1.59.212a1.668,1.668,0,0,0-.463-.339.216.216,0,0,0-.3.129v0a.216.216,0,0,0,.111.258,1.226,1.226,0,0,1,.34.25.216.216,0,0,0,.28.027l0,0A.215.215,0,0,0,883.995,2736.66Zm-.06,1.987,0,0a.216.216,0,0,0,.32-.069,1.626,1.626,0,0,0,.177-.533.216.216,0,0,0-.213-.248h0a.216.216,0,0,0-.213.184,1.2,1.2,0,0,1-.129.388A.215.215,0,0,0,883.935,2738.646Zm-1.364.783a1.677,1.677,0,0,0,.542-.012.216.216,0,0,0,.164-.284l0,0a.214.214,0,0,0-.242-.14,1.255,1.255,0,0,1-.227.021,1.192,1.192,0,0,1-.177-.013.215.215,0,0,0-.235.151v0A.216.216,0,0,0,882.571,2739.43Zm.236-.788a.843.843,0,1,0-.842-.842A.84.84,0,0,0,882.807,2738.642Zm-1.628-.6a1.615,1.615,0,0,0,.173.524.216.216,0,0,0,.319.071l0,0a.216.216,0,0,0,.061-.275,1.188,1.188,0,0,1-.126-.38.216.216,0,0,0-.213-.185h0A.215.215,0,0,0,881.179,2738.047Z" transform="translate(-880.717 -2735.71)" fill="#deebfc"/>
  </g>
  <g id="Group_1086" data-name="Group 1086" transform="translate(24.785 16.278)">
    <path id="Path_2261" data-name="Path 2261" d="M960.487,2828.706a1.524,1.524,0,0,1,.172.058,4.96,4.96,0,0,1,.948.493.842.842,0,0,0,1.193,1.094,5.134,5.134,0,0,1,.655,1.062,2.09,2.09,0,0,1-2.968-2.707Zm1.638,2.556a1.648,1.648,0,0,0,.542-.011.216.216,0,0,0,.165-.284l0,0a.215.215,0,0,0-.242-.141,1.231,1.231,0,0,1-.227.021,1.259,1.259,0,0,1-.177-.013.214.214,0,0,0-.235.151v0A.216.216,0,0,0,962.125,2831.262Zm-1.392-1.383a1.627,1.627,0,0,0,.173.525.216.216,0,0,0,.319.071l0,0a.216.216,0,0,0,.061-.275,1.193,1.193,0,0,1-.126-.38.216.216,0,0,0-.213-.184h0A.215.215,0,0,0,960.733,2829.88Z" transform="translate(-960.271 -2828.706)" fill="#fff"/>
  </g>
  <g id="Group_1087" data-name="Group 1087" transform="translate(24.734 15.064)">
    <path id="Path_2262" data-name="Path 2262" d="M878.795,2735.928a2.141,2.141,0,1,0-2.141-2.141A2.143,2.143,0,0,0,878.795,2735.928Zm0-4.18a2.039,2.039,0,1,1-2.039,2.039A2.041,2.041,0,0,1,878.795,2731.749Zm0,3.736a1.705,1.705,0,0,0,.316-.029.267.267,0,0,0,.2-.351v0a.267.267,0,0,0-.251-.178.239.239,0,0,0-.049,0,1.171,1.171,0,0,1-.387.008l-.038,0a.267.267,0,0,0-.253.189v0a.267.267,0,0,0,.219.342A1.692,1.692,0,0,0,878.795,2735.485Zm.267-.46a.165.165,0,0,1,.155.11v0a.165.165,0,0,1-.012.137.167.167,0,0,1-.114.08,1.616,1.616,0,0,1-.526.011.166.166,0,0,1-.117-.075.164.164,0,0,1-.018-.136v0a.165.165,0,0,1,.156-.117l.023,0a1.274,1.274,0,0,0,.421-.009Zm.994-.293a.266.266,0,0,0,.235-.14,1.671,1.671,0,0,0,.183-.549.267.267,0,0,0-.264-.306h0a.266.266,0,0,0-.264.227,1.14,1.14,0,0,1-.124.371.265.265,0,0,0,.074.34l0,0A.265.265,0,0,0,880.055,2734.732Zm.154-.893a.165.165,0,0,1,.163.189,1.574,1.574,0,0,1-.172.516.165.165,0,0,1-.244.053l0,0a.164.164,0,0,1-.047-.211,1.244,1.244,0,0,0,.135-.4.164.164,0,0,1,.163-.141Zm-2.68.885a.265.265,0,0,0,.159-.052l0,0a.265.265,0,0,0,.075-.339,1.146,1.146,0,0,1-.12-.365.266.266,0,0,0-.264-.228h0a.267.267,0,0,0-.264.306,1.677,1.677,0,0,0,.178.541A.265.265,0,0,0,877.53,2734.724Zm-.146-.885a.165.165,0,0,1,.163.141,1.244,1.244,0,0,0,.131.4.164.164,0,0,1-.047.21l0,0a.165.165,0,0,1-.243-.055,1.574,1.574,0,0,1-.168-.508.165.165,0,0,1,.163-.189Zm1.41.842a.893.893,0,1,0-.893-.893A.894.894,0,0,0,878.795,2734.681Zm0-1.684a.791.791,0,1,1-.791.791A.792.792,0,0,1,878.795,2733Zm-1.048.091a.266.266,0,0,0,.194-.085,1.159,1.159,0,0,1,.36-.265.267.267,0,0,0,.14-.316v-.005a.267.267,0,0,0-.371-.163,1.7,1.7,0,0,0-.521.383.269.269,0,0,0-.07.214.265.265,0,0,0,.115.189l0,0A.265.265,0,0,0,877.747,2733.087Zm.438-.759a.164.164,0,0,1,.158.118v0a.165.165,0,0,1-.086.195,1.263,1.263,0,0,0-.391.288.164.164,0,0,1-.212.023l0,0a.164.164,0,0,1-.071-.117.168.168,0,0,1,.043-.133,1.6,1.6,0,0,1,.49-.36A.164.164,0,0,1,878.184,2732.329Zm1.64.737a.265.265,0,0,0,.153-.048l0,0a.266.266,0,0,0,.037-.4,1.711,1.711,0,0,0-.477-.349.266.266,0,0,0-.372.16v0a.265.265,0,0,0,.137.319,1.161,1.161,0,0,1,.326.239A.269.269,0,0,0,879.824,2733.066Zm-.4-.729a.167.167,0,0,1,.073.017,1.618,1.618,0,0,1,.449.328.165.165,0,0,1-.024.249l0,0a.164.164,0,0,1-.213-.021,1.271,1.271,0,0,0-.354-.259.164.164,0,0,1-.085-.2v0A.165.165,0,0,1,879.424,2732.337Z" transform="translate(-876.654 -2731.647)" fill="#231f20"/>
  </g>
  <g id="Group_1088" data-name="Group 1088" transform="translate(25.981 16.312)">
    <path id="Path_2263" data-name="Path 2263" d="M977.277,2833.162a.893.893,0,1,0-.893-.893A.894.894,0,0,0,977.277,2833.162Zm0-1.684a.791.791,0,1,1-.791.791A.792.792,0,0,1,977.277,2831.478Z" transform="translate(-976.384 -2831.376)" fill="#231f20"/>
  </g>
  <g id="Group_1089" data-name="Group 1089" transform="translate(22.338 6.917)">
    <path id="Path_2264" data-name="Path 2264" d="M1041.851,2090.776a.127.127,0,0,0,.052-.011.13.13,0,0,0,.068-.172l-4.405-10.157a.131.131,0,0,0-.24.1l4.405,10.157A.131.131,0,0,0,1041.851,2090.776Z" transform="translate(-1037.315 -2080.357)" fill="#fff"/>
  </g>
  <g id="Group_1090" data-name="Group 1090" transform="translate(22.287 6.866)">
    <path id="Path_2265" data-name="Path 2265" d="M1037.834,2086.814a.174.174,0,0,0,.072-.015.178.178,0,0,0,.1-.1.18.18,0,0,0,0-.139l-4.406-10.158a.181.181,0,0,0-.167-.109.175.175,0,0,0-.072.015.181.181,0,0,0-.094.239l4.405,10.158A.181.181,0,0,0,1037.834,2086.814Zm-4.406-10.419a.08.08,0,0,1,.073.048l4.405,10.158a.079.079,0,0,1,0,.061.08.08,0,0,1-.042.044.081.081,0,0,1-.105-.042l-4.405-10.157a.08.08,0,0,1,.041-.1A.08.08,0,0,1,1033.428,2076.4Z" transform="translate(-1033.246 -2076.294)" fill="#231f20"/>
  </g>
  <g id="Group_1091" data-name="Group 1091" transform="translate(22.163 6.914)">
    <rect id="Rectangle_595" data-name="Rectangle 595" width="8.148" height="0.668" transform="translate(3.242 7.741) rotate(-113.447)" fill="#fff"/>
  </g>
  <g id="Group_1092" data-name="Group 1092" transform="translate(22.112 6.864)">
    <path id="Path_2266" data-name="Path 2266" d="M1115.481,2083.963a.049.049,0,0,0,.02,0l.613-.266a.051.051,0,0,0,.026-.067l-3.242-7.475a.053.053,0,0,0-.028-.027.05.05,0,0,0-.039,0l-.613.266a.051.051,0,0,0-.026.067l3.242,7.475a.052.052,0,0,0,.028.027A.05.05,0,0,0,1115.481,2083.963Zm.546-.343-.52.226-3.2-7.383.52-.225Z" transform="translate(-1112.188 -2076.12)" fill="#231f20"/>
  </g>
  <g id="Group_1093" data-name="Group 1093" transform="translate(26.079 12.939)">
    <path id="Path_2267" data-name="Path 2267" d="M684.041,2561.928l1.756,4.128h3.589a4.27,4.27,0,0,0-5.346-4.128Z" transform="translate(-684.041 -2561.79)" fill="#ffc305"/>
  </g>
  <g id="Group_1094" data-name="Group 1094" transform="translate(26.911 12.946)">
    <path id="Path_2268" data-name="Path 2268" d="M683.934,2562.351l.184.356a1.686,1.686,0,0,0,.65.682,4.188,4.188,0,0,1,2.081,3.22h1.6a4.336,4.336,0,0,0-2.461-3.866A7.51,7.51,0,0,0,683.934,2562.351Z" transform="translate(-683.934 -2562.351)" fill="#ffd85e"/>
  </g>
  <g id="Group_1095" data-name="Group 1095" transform="translate(26.028 12.889)">
    <path id="Path_2269" data-name="Path 2269" d="M681.785,2562.094h3.589a.051.051,0,0,0,.051-.051,4.32,4.32,0,0,0-5.409-4.177.051.051,0,0,0-.034.069l1.756,4.127A.051.051,0,0,0,681.785,2562.094Zm3.538-.1h-3.5l-1.72-4.042a4.218,4.218,0,0,1,5.224,4.042Z" transform="translate(-679.978 -2557.727)" fill="#231f20"/>
  </g>
  <g id="Group_1096" data-name="Group 1096" transform="translate(25.948 12.947)">
    <path id="Path_2270" data-name="Path 2270" d="M675.48,2566.756h3.589a.131.131,0,1,0,0-.261h-3.5l-1.722-4.048a.131.131,0,0,0-.241.1l1.756,4.128A.13.13,0,0,0,675.48,2566.756Z" transform="translate(-673.593 -2562.367)" fill="#fff"/>
  </g>
  <g id="Group_1097" data-name="Group 1097" transform="translate(25.897 12.896)">
    <path id="Path_2271" data-name="Path 2271" d="M671.468,2562.795h3.589a.182.182,0,0,0,0-.363h-3.469l-1.709-4.017a.182.182,0,0,0-.167-.111.174.174,0,0,0-.071.015.181.181,0,0,0-.1.238l1.756,4.128A.181.181,0,0,0,671.468,2562.795Zm3.589-.261a.08.08,0,1,1,0,.16h-3.589a.08.08,0,0,1-.074-.049l-1.756-4.128a.079.079,0,0,1,.042-.1.077.077,0,0,1,.031-.007.08.08,0,0,1,.074.049l1.722,4.048a.051.051,0,0,0,.047.031h3.5Z" transform="translate(-669.53 -2558.304)" fill="#231f20"/>
  </g>
  <g id="Group_1098" data-name="Group 1098" transform="translate(2.09 5.973)">
    <path id="Path_2272" data-name="Path 2272" d="M1138.2,2014.924h-5.285l-.436-1.337,1.22-3.653h-8.8l-1.593,2.135a7.6,7.6,0,0,0-1.5,3.94.124.124,0,0,0,.125.127h15.265a9.338,9.338,0,0,0,4.483-1.146l.021-.011a5.034,5.034,0,0,1,3.471-3.663l.422-.614a.41.41,0,0,0,.023-.426l-2.242-4.163a.929.929,0,0,0-.413-.4l-1.676-.813-.306.459a.487.487,0,0,0-.078.332l.79,6.176-1.324,1.872a2.8,2.8,0,0,1-1.7,1.13A2.247,2.247,0,0,1,1138.2,2014.924Z" transform="translate(-1121.803 -2004.904)" fill="#ffc305"/>
  </g>
  <g id="Group_1099" data-name="Group 1099" transform="translate(23.169 6.941)">
    <path id="Path_2273" data-name="Path 2273" d="M1128.441,2086.7l-1.019-.284a.449.449,0,0,1-.293-.257l-1.382-3.241a.449.449,0,0,1,.156-.545l.11-.077Z" transform="translate(-1125.711 -2082.294)" fill="#ffd85e"/>
  </g>
  <g id="Group_1100" data-name="Group 1100" transform="translate(8.619 12.292)">
    <path id="Path_2274" data-name="Path 2274" d="M2180.007,2514.961a4.345,4.345,0,0,0-1.952-4.364.439.439,0,0,1-.2-.524v0a5.12,5.12,0,0,1,3.433,2.446,5.306,5.306,0,0,1,.651,2.336Z" transform="translate(-2177.833 -2510.07)" fill="#ffd85e"/>
  </g>
  <g id="Group_1101" data-name="Group 1101" transform="translate(23.081 4.082)">
    <path id="Path_2275" data-name="Path 2275" d="M1302.7,1859.58a.848.848,0,0,1-.331-.069l-.23-1.479a.9.9,0,0,1,.352-.2Z" transform="translate(-1302.089 -1857.777)" fill="#231f20"/>
    <path id="Path_2276" data-name="Path 2276" d="M1298.688,1855.618a.051.051,0,0,0,.05-.057l-.208-1.752a.051.051,0,0,0-.065-.042.952.952,0,0,0-.372.216.051.051,0,0,0-.016.045l.23,1.479a.051.051,0,0,0,.028.038.888.888,0,0,0,.35.074Zm-.251-1.734.194,1.628a.726.726,0,0,1-.227-.049l-.221-1.424A.848.848,0,0,1,1298.436,1853.884Z" transform="translate(-1298.076 -1853.764)" fill="#231f20"/>
  </g>
  <g id="Group_1102" data-name="Group 1102" transform="translate(23.468 4.002)">
    <path id="Path_2277" data-name="Path 2277" d="M1275.917,1847.386l.242,1.993-.319-.012-.237-1.993Z" transform="translate(-1275.603 -1847.374)" fill="#ffc305"/>
  </g>
  <g id="Group_1103" data-name="Group 1103" transform="translate(20.314 3.097)">
    <path id="Path_2278" data-name="Path 2278" d="M1323.938,1776.016l.234.1a.207.207,0,0,1,.116.138l.189.736a.4.4,0,0,0,.386.3h0a.649.649,0,0,1,.287.067l1.717.847a.12.12,0,0,0,.171-.127l-.335-1.986a.7.7,0,0,0-.4-.521l-1.1-.489a.642.642,0,0,0-.76.182l0,0a.165.165,0,0,1-.161.057l-.275-.067" transform="translate(-1323.938 -1775.027)" fill="#ffc305"/>
  </g>
  <g id="Group_1104" data-name="Group 1104" transform="translate(21.293 3.098)">
    <path id="Path_2279" data-name="Path 2279" d="M1368.785,1775.764l-.185.192a.732.732,0,0,0-.2.556l.051.771-1.249-.6v-1.6l.191.02Z" transform="translate(-1367.199 -1775.086)" fill="#ffd85e"/>
  </g>
  <g id="Group_1105" data-name="Group 1105" transform="translate(2.039 5.922)">
    <path id="Path_2280" data-name="Path 2280" d="M1117.892,2012.174h15.265a9.416,9.416,0,0,0,4.508-1.153l.021-.011a.052.052,0,0,0,.025-.033,4.98,4.98,0,0,1,3.436-3.626.052.052,0,0,0,.028-.02l.422-.614a.457.457,0,0,0,.026-.478l-2.242-4.163a.976.976,0,0,0-.435-.417l-1.676-.813a.051.051,0,0,0-.065.018l-.306.459a.538.538,0,0,0-.086.366l.788,6.157-1.312,1.856a2.743,2.743,0,0,1-1.671,1.11,2.219,2.219,0,0,1-.456.051h-5.248l-.419-1.286,1.214-3.637a.05.05,0,0,0-.007-.046.051.051,0,0,0-.041-.021h-8.8a.051.051,0,0,0-.041.02l-1.593,2.135a7.957,7.957,0,0,0-.733,1.186,6.744,6.744,0,0,0-.776,2.783.175.175,0,0,0,.175.179Zm19.725-1.242h0a9.316,9.316,0,0,1-4.459,1.14h-15.265a.074.074,0,0,1-.053-.022.072.072,0,0,1-.021-.053,6.643,6.643,0,0,1,.765-2.74,7.851,7.851,0,0,1,.723-1.17l1.579-2.115h8.705l-1.2,3.586a.05.05,0,0,0,0,.032l.436,1.337a.05.05,0,0,0,.048.035h5.285a2.322,2.322,0,0,0,.477-.053,2.845,2.845,0,0,0,1.732-1.15l1.324-1.872a.051.051,0,0,0,.009-.036l-.79-6.177a.435.435,0,0,1,.07-.3l.281-.422,1.636.794a.874.874,0,0,1,.39.374l2.242,4.163a.356.356,0,0,1-.02.373l-.412.6A5.081,5.081,0,0,0,1137.617,2010.932Z" transform="translate(-1117.716 -2000.84)" fill="#231f20"/>
  </g>
  <g id="Group_1106" data-name="Group 1106" transform="translate(5.023 8.587)">
    <path id="Path_2281" data-name="Path 2281" d="M2022.638,2216.274l-.125-.328a.5.5,0,0,1-.006-.344l.481-1.4a.5.5,0,0,1,.477-.341h8.164a.505.505,0,0,1,.314.109l0,0a.506.506,0,0,1,.187.462l-.167,1.252a.5.5,0,0,1-.193.333l-.333.256Z" transform="translate(-2022.479 -2213.858)" fill="#231f20"/>
  </g>
  <g id="Group_1107" data-name="Group 1107" transform="translate(4.972 8.536)">
    <path id="Path_2282" data-name="Path 2282" d="M2018.63,2212.312h8.8a.05.05,0,0,0,.031-.01l.333-.256a.551.551,0,0,0,.213-.367l.167-1.252a.558.558,0,0,0-.205-.509l0,0a.051.051,0,1,0-.063.08l0,0a.456.456,0,0,1,.168.415l-.167,1.252a.45.45,0,0,1-.174.3l-.32.246h-8.749l-.113-.3a.456.456,0,0,1-.005-.309l.481-1.4a.454.454,0,0,1,.429-.307h2.635a.051.051,0,0,0,0-.1h-2.635a.555.555,0,0,0-.525.375l-.481,1.4a.556.556,0,0,0,.007.378l.125.328A.051.051,0,0,0,2018.63,2212.312Z" transform="translate(-2018.421 -2209.795)" fill="#231f20"/>
  </g>
  <g id="Group_1108" data-name="Group 1108" transform="translate(20.263 3.046)">
    <path id="Path_2283" data-name="Path 2283" d="M1322.916,1774.273a.171.171,0,0,0,.168-.2l-.335-1.985a.746.746,0,0,0-.433-.559l-1.1-.489a.694.694,0,0,0-.821.2l0,0a.113.113,0,0,1-.111.04l-.274-.067a.051.051,0,0,0-.024.1l.276.067h0a.215.215,0,0,0,.211-.075l0,0a.592.592,0,0,1,.7-.167l1.1.489a.645.645,0,0,1,.374.483l.335,1.986a.069.069,0,0,1-.1.073l-1.717-.847a.706.706,0,0,0-.309-.072h0a.347.347,0,0,1-.336-.261l-.189-.736a.256.256,0,0,0-.145-.172l-.234-.1a.051.051,0,1,0-.041.093l.234.1a.155.155,0,0,1,.088.1l.189.737a.448.448,0,0,0,.435.337h0a.6.6,0,0,1,.264.062l1.717.846A.171.171,0,0,0,1322.916,1774.273Z" transform="translate(-1319.879 -1770.98)" fill="#231f20"/>
  </g>
  <g id="Group_1109" data-name="Group 1109" transform="translate(23.418 3.951)">
    <path id="Path_2284" data-name="Path 2284" d="M1272.147,1845.417a.05.05,0,0,0,.037-.016.051.051,0,0,0,.013-.041l-.242-1.993a.051.051,0,0,0-.049-.045l-.314-.012a.051.051,0,0,0-.052.057l.237,1.993a.051.051,0,0,0,.048.045l.319.012Zm-.287-1.995.229,1.891-.216-.008-.225-1.891Z" transform="translate(-1271.54 -1843.311)" fill="#231f20"/>
  </g>
  <g id="Group_1110" data-name="Group 1110" transform="translate(23.081 4.082)">
    <path id="Path_2285" data-name="Path 2285" d="M1298.688,1855.618a.051.051,0,0,0,.05-.057l-.208-1.752a.051.051,0,0,0-.065-.042.952.952,0,0,0-.372.216.051.051,0,0,0-.016.045l.23,1.479a.051.051,0,0,0,.028.038.888.888,0,0,0,.35.074Zm-.251-1.734.194,1.628a.726.726,0,0,1-.227-.049l-.221-1.424A.848.848,0,0,1,1298.436,1853.884Z" transform="translate(-1298.076 -1853.764)" fill="#231f20"/>
  </g>
  <g id="Group_1111" data-name="Group 1111" transform="translate(1.79 12.392)">
    <path id="Path_2286" data-name="Path 2286" d="M2933.753,2518l-1.212,2.962-.3-.239,1.278-2.724Z" transform="translate(-2932.243 -2518.002)" fill="#ffc305"/>
  </g>
  <g id="Group_1112" data-name="Group 1112" transform="translate(1.739 12.341)">
    <path id="Path_2287" data-name="Path 2287" d="M2928.53,2517l.013,0a.05.05,0,0,0,.034-.03l1.212-2.963a.051.051,0,0,0-.047-.07h-.233a.051.051,0,0,0-.046.029l-1.278,2.723a.05.05,0,0,0,.014.061l.3.239A.05.05,0,0,0,2928.53,2517Zm1.136-2.963-1.157,2.829-.214-.171,1.247-2.658Z" transform="translate(-2928.18 -2513.94)" fill="#231f20"/>
  </g>
  <g id="Group_1113" data-name="Group 1113" transform="translate(2.292 12.963)">
    <path id="Path_2288" data-name="Path 2288" d="M2910.468,2563.872l-.522-.175-.773,1.891.252.159A10.14,10.14,0,0,1,2910.468,2563.872Z" transform="translate(-2909.172 -2563.697)" fill="#231f20"/>
  </g>
  <g id="Group_1114" data-name="Group 1114" transform="translate(2.242 12.912)">
    <path id="Path_2289" data-name="Path 2289" d="M2905.412,2561.784l.016,0a.05.05,0,0,0,.031-.029,10.186,10.186,0,0,1,1.038-1.864.05.05,0,0,0-.025-.078l-.523-.175a.051.051,0,0,0-.063.029l-.773,1.891a.051.051,0,0,0,.02.062l.252.158A.046.046,0,0,0,2905.412,2561.784Zm.962-1.9a10.285,10.285,0,0,0-.985,1.774l-.166-.1.739-1.807Z" transform="translate(-2905.11 -2559.634)" fill="#231f20"/>
  </g>
  <g id="Group_1115" data-name="Group 1115" transform="translate(0.331 3.105)">
    <path id="Path_2290" data-name="Path 2290" d="M2591.806,1781.167h7a.05.05,0,0,0,.051-.052l-.128-5.431a.051.051,0,0,0-.051-.05h-7a.051.051,0,0,0-.051.052l.128,5.431A.05.05,0,0,0,2591.806,1781.167Zm6.948-.1h-6.9l-.126-5.33h6.9Z" transform="translate(-2591.626 -1775.634)" fill="#231f20"/>
  </g>
  <g id="Group_1116" data-name="Group 1116" transform="translate(0 8.536)">
    <path id="Path_2291" data-name="Path 2291" d="M2730.352,2210.373h5.042a.051.051,0,0,0,.048-.034,1.706,1.706,0,0,1,.286-.46.051.051,0,0,0-.038-.085h-5.6a.184.184,0,0,0-.161.272l.047.086A.425.425,0,0,0,2730.352,2210.373Zm5.007-.1h-5.007a.323.323,0,0,1-.283-.167l-.047-.086a.08.08,0,0,1,0-.081.081.081,0,0,1,.071-.041h5.49A1.682,1.682,0,0,0,2735.359,2210.271Z" transform="translate(-2729.909 -2209.795)" fill="#231f20"/>
  </g>
  <g id="Group_1120" data-name="Group 1120" transform="translate(3.089)">
    <g id="Group_1117" data-name="Group 1117" transform="translate(0)">
      <path id="Path_2292" data-name="Path 2292" d="M2790.163,1536.1h.009a.05.05,0,0,0,.041-.059l-1.548-8.536a.051.051,0,0,0-.05-.042h-.363a.051.051,0,1,0,0,.1h.321l1.54,8.494A.051.051,0,0,0,2790.163,1536.1Z" transform="translate(-2788.201 -1527.466)" fill="#231f20"/>
    </g>
    <g id="Group_1118" data-name="Group 1118" transform="translate(0.051 0.051)">
      <path id="Path_2293" data-name="Path 2293" d="M2793.734,1540.065l-1.47-8.536h.363l1.548,8.536Z" transform="translate(-2792.264 -1531.529)" fill="#fff"/>
    </g>
    <g id="Group_1119" data-name="Group 1119" transform="translate(0)">
      <path id="Path_2294" data-name="Path 2294" d="M2789.723,1536.1h.44a.051.051,0,0,0,.039-.018.052.052,0,0,0,.011-.042l-1.548-8.536a.051.051,0,0,0-.05-.042h-.363a.051.051,0,0,0-.05.06l1.471,8.536A.05.05,0,0,0,2789.723,1536.1Zm.38-.1h-.337l-1.453-8.435h.26Z" transform="translate(-2788.201 -1527.466)" fill="#231f20"/>
    </g>
  </g>
  <g id="Group_1121" data-name="Group 1121" transform="translate(1.955 3.155)">
    <path id="Path_2295" data-name="Path 2295" d="M2997.471,1779.7l.08,5.431h-.455l-.08-5.431Z" transform="translate(-2997.016 -1779.697)" fill="#fff"/>
  </g>
  <g id="Group_1122" data-name="Group 1122" transform="translate(1.904 3.105)">
    <path id="Path_2296" data-name="Path 2296" d="M2993.083,1781.167h.456a.051.051,0,0,0,.036-.015.05.05,0,0,0,.014-.036l-.08-5.431a.051.051,0,0,0-.051-.05H2993a.052.052,0,0,0-.036.015.051.051,0,0,0-.014.036l.08,5.431A.051.051,0,0,0,2993.083,1781.167Zm.4-.1h-.354l-.078-5.33h.353Z" transform="translate(-2992.953 -1775.634)" fill="#231f20"/>
  </g>
  <g id="Group_1123" data-name="Group 1123" transform="translate(1.768 5.869)">
    <path id="Path_2297" data-name="Path 2297" d="M2981.324,1997.375a.118.118,0,0,0,.117-.133l-.057-.482a.121.121,0,0,0-.12-.107l-.591,0a.117.117,0,0,0-.119.108l-.039.481a.122.122,0,0,0,.12.132l.688,0Zm-.652-.623.591,0a.02.02,0,0,1,.02.018l.057.482a.016.016,0,0,1-.017.019v0l-.688,0a.02.02,0,0,1-.02-.021l.039-.481A.017.017,0,0,1,2980.672,1996.752Z" transform="translate(-2980.514 -1996.65)" fill="#231f20"/>
  </g>
  <g id="Group_1124" data-name="Group 1124" transform="translate(2.168 5.871)">
    <path id="Path_2298" data-name="Path 2298" d="M3014.055,1997.182h0a.051.051,0,0,0,.05-.052l-.007-.31a.051.051,0,0,0-.052-.05.05.05,0,0,0-.049.052l.007.31A.051.051,0,0,0,3014.055,1997.182Z" transform="translate(-3013.997 -1996.77)" fill="#231f20"/>
  </g>
  <g id="Group_1125" data-name="Group 1125" transform="translate(3.976 5.885)">
    <path id="Path_2299" data-name="Path 2299" d="M2802.583,1998.728h.016l.679-.093a.117.117,0,0,0,.082-.051.121.121,0,0,0,.016-.1l-.124-.47a.122.122,0,0,0-.117-.091h-.016l-.584.08a.117.117,0,0,0-.1.124l.029.484A.122.122,0,0,0,2802.583,1998.728Zm.552-.7a.02.02,0,0,1,.019.015l.124.47a.016.016,0,0,1,0,.014.015.015,0,0,1-.011.007l-.679.093a.021.021,0,0,1-.022-.019l-.029-.484a.016.016,0,0,1,.014-.017l.584-.08Z" transform="translate(-2802.432 -1997.925)" fill="#231f20"/>
  </g>
  <g id="Group_1126" data-name="Group 1126" transform="translate(4.323 5.926)">
    <path id="Path_2300" data-name="Path 2300" d="M2838.365,2001.612h.008a.051.051,0,0,0,.042-.058l-.051-.307a.051.051,0,1,0-.1.017l.051.307A.05.05,0,0,0,2838.365,2001.612Z" transform="translate(-2838.264 -2001.203)" fill="#231f20"/>
  </g>
  <g id="Group_1127" data-name="Group 1127" transform="translate(21.658 5.467)">
    <path id="Path_2301" data-name="Path 2301" d="M1353.726,1969.141l.139.581-1.2-.581-.156-.6Z" transform="translate(-1352.461 -1968.491)" fill="#231f20"/>
    <path id="Path_2302" data-name="Path 2302" d="M1349.852,1965.759a.051.051,0,0,0,.032-.011.05.05,0,0,0,.018-.052l-.139-.581a.051.051,0,0,0-.027-.034l-1.214-.6a.051.051,0,0,0-.072.058l.156.6a.051.051,0,0,0,.027.033l1.2.581A.051.051,0,0,0,1349.852,1965.759Zm-.182-.6.108.453-1.079-.524-.122-.469Z" transform="translate(-1348.449 -1964.479)" fill="#231f20"/>
  </g>
  <g id="Group_1131" data-name="Group 1131" transform="translate(2.555 12.158)">
    <g id="Group_1128" data-name="Group 1128" transform="translate(0.131)">
      <path id="Path_2303" data-name="Path 2303" d="M2174.613,2504.455a.051.051,0,0,0,.051-.051,4.945,4.945,0,1,1,9.89,0,.051.051,0,0,0,.1,0,5.047,5.047,0,1,0-10.093,0A.05.05,0,0,0,2174.613,2504.455Z" transform="translate(-2174.563 -2499.358)" fill="#231f20"/>
    </g>
    <g id="Group_1129" data-name="Group 1129" transform="translate(0.051 4.916)">
      <path id="Path_2304" data-name="Path 2304" d="M2168.309,2892.574h9.992a.131.131,0,0,0,0-.262h-9.992a.131.131,0,1,0,0,.262Z" transform="translate(-2168.178 -2892.312)" fill="#fff"/>
    </g>
    <g id="Group_1130" data-name="Group 1130" transform="translate(0 4.865)">
      <path id="Path_2305" data-name="Path 2305" d="M2164.3,2888.612h9.991a.182.182,0,0,0,0-.363H2164.3a.182.182,0,0,0,0,.363Zm9.991-.261a.08.08,0,0,1,0,.16H2164.3a.08.08,0,0,1,0-.16Z" transform="translate(-2164.115 -2888.249)" fill="#231f20"/>
    </g>
  </g>
  <g id="Group_1132" data-name="Group 1132" transform="translate(0.865)">
    <path id="Path_2306" data-name="Path 2306" d="M2793.536,1530.672h0a.051.051,0,0,0,.047-.054l-.221-3.05h3.745l.222,3.058a.051.051,0,0,0,.1-.007l-.225-3.1a.051.051,0,0,0-.051-.047h-3.847a.051.051,0,0,0-.037.016.051.051,0,0,0-.013.038l.225,3.1A.051.051,0,0,0,2793.536,1530.672Z" transform="translate(-2793.26 -1527.466)" fill="#231f20"/>
  </g>
</svg>
