<svg xmlns="http://www.w3.org/2000/svg" width="30" height="30" viewBox="0 0 25.456 25.456">
  <path id="Icon_ionic-ios-paper-plane" data-name="Icon ionic-ios-paper-plane" d="M20.861,3.419l-17.3,9.36a.362.362,0,0,0,.026.645l2.951,1.112a.7.7,0,0,1,.389.363L9.221,19.62c.043.208.428.264.433.052l-.35-3.9a1.391,1.391,0,0,1,.316-.788l8.97-8.789a.216.216,0,0,1,.195-.056.205.205,0,0,1,.113.329l-7.732,9.459a1.729,1.729,0,0,0-.3.779L10.4,20.074c.039.294.268.407.454.143l1.666-1.956a.349.349,0,0,1,.489-.082L17.3,21.308a.346.346,0,0,0,.545-.212L21.367,3.808A.351.351,0,0,0,20.861,3.419Z" transform="translate(12.728 -4.775) rotate(45)"/>
</svg>
