<svg xmlns="http://www.w3.org/2000/svg" width="40" height="40" viewBox="0 0 40 40">
    <g id="Rectangle_3496" data-name="Rectangle 3496" fill="#fff" stroke="#efefef" stroke-width="1">
        <rect width="40" height="40" rx="8" stroke="none"/>
        <rect x="0.5" y="0.5" width="39" height="39" rx="7.5" fill="none"/>
    </g>
    <path id="Icon_awesome-street-view" data-name="Icon awesome-street-view" d="M17.836,15.987a3.1,3.1,0,0,1-.771.662v1.112c3.225.453,5.43,1.36,5.43,2.407,0,1.5-4.515,2.715-10.084,2.715S2.327,21.668,2.327,20.168c0-1.047,2.2-1.954,5.43-2.407V16.649a3.1,3.1,0,0,1-.771-.662C2.854,16.742,0,18.328,0,20.168c0,2.57,5.557,4.654,12.411,4.654s12.411-2.084,12.411-4.654C24.822,18.328,21.968,16.742,17.836,15.987ZM12.411,6.206a3.1,3.1,0,1,0-3.1-3.1A3.1,3.1,0,0,0,12.411,6.206Zm-3.1,9.308v4.654a1.552,1.552,0,0,0,1.551,1.551h3.1a1.552,1.552,0,0,0,1.551-1.551V15.514a1.552,1.552,0,0,0,1.551-1.551V9.308a2.327,2.327,0,0,0-2.327-2.327h-.572a4.165,4.165,0,0,1-3.51,0h-.572A2.327,2.327,0,0,0,7.757,9.308v4.654A1.552,1.552,0,0,0,9.308,15.514Z" transform="translate(7.588 7.589)"/>
</svg>