<svg xmlns="http://www.w3.org/2000/svg" width="40" height="40" viewBox="0 0 40 40">
  <g id="Rectangle_37" data-name="Rectangle 37" fill="#fff" stroke="#efefef" stroke-width="1">
    <rect width="40" height="40" rx="8" stroke="none"/>
    <rect x="0.5" y="0.5" width="39" height="39" rx="7.5" fill="none"/>
  </g>
  <path id="Icon_awesome-file-invoice-dollar" data-name="Icon awesome-file-invoice-dollar" d="M20.948,5.47,15.508.365A1.379,1.379,0,0,0,14.564,0h-.339V6.668h7.112V6.351A1.208,1.208,0,0,0,20.948,5.47Zm-8.5,1.615V0H1.334A1.291,1.291,0,0,0,0,1.25V25.424a1.291,1.291,0,0,0,1.334,1.25H20a1.291,1.291,0,0,0,1.334-1.25V8.336H13.78A1.3,1.3,0,0,1,12.447,7.085ZM3.556,3.751A.431.431,0,0,1,4,3.334H8.446a.431.431,0,0,1,.445.417v.834A.431.431,0,0,1,8.446,5H4a.431.431,0,0,1-.445-.417Zm0,4.168V7.085A.431.431,0,0,1,4,6.668H8.446a.431.431,0,0,1,.445.417v.834a.431.431,0,0,1-.445.417H4A.431.431,0,0,1,3.556,7.919Zm8,13.748v1.257a.431.431,0,0,1-.445.417h-.889a.431.431,0,0,1-.445-.417V21.657a3.315,3.315,0,0,1-1.743-.591A.4.4,0,0,1,8,20.434l.653-.584a.48.48,0,0,1,.563-.038,1.4,1.4,0,0,0,.712.194h1.562a.673.673,0,0,0,.656-.687.684.684,0,0,0-.487-.663l-2.5-.7a2.342,2.342,0,0,1,.616-4.609V12.087a.431.431,0,0,1,.445-.417h.889a.431.431,0,0,1,.445.417v1.265a3.311,3.311,0,0,1,1.743.591.4.4,0,0,1,.032.632l-.653.584a.48.48,0,0,1-.563.038A1.4,1.4,0,0,0,11.4,15H9.842a.673.673,0,0,0-.656.687.684.684,0,0,0,.487.663l2.5.7a2.342,2.342,0,0,1-.616,4.609Z" transform="translate(9.483 6.811)" fill="#262628"/>
</svg>
