<svg xmlns="http://www.w3.org/2000/svg" width="12.073" height="15.389" viewBox="0 0 12.073 15.389">
  <g id="Icon_ionic-ios-trash" data-name="Icon ionic-ios-trash" transform="translate(-8.297 -4.5)">
    <path id="Path_36099" data-name="Path 36099" d="M9.359,9l1.032,11.65a1.23,1.23,0,0,0,1.282,1.174H17.84a1.23,1.23,0,0,0,1.282-1.174L20.141,9Zm2.694,10.62-.293-9.338h.809l.3,9.338Zm3.075,0h-.787V10.282h.787Zm2.288,0H16.6l.3-9.338h.809Z" transform="translate(-0.401 -1.935)"/>
    <path id="Path_36100" data-name="Path 36100" d="M19.057,5.622H17.483L16.332,4.7a.935.935,0,0,0-.577-.2H12.92a.951.951,0,0,0-.586.2l-1.15.922H9.609c-.77,0-1.312.337-1.312,1.042H20.37C20.37,5.959,19.827,5.622,19.057,5.622Z"/>
  </g>
</svg>
